<svg viewBox="0 0 367 70" xmlns="http://www.w3.org/2000/svg" xmlns:xlink="http://www.w3.org/1999/xlink" id="Слой_1" overflow="hidden"><path d="M90.5 23.3C90.5 15.9 95.4 11.7 102.6 11.7 106.1 11.7 108.7 12.4 108.7 12.4L108.7 16.5C108.7 16.5 106.7 13.6 102.8 13.6 98.1 13.6 95.3 17.3 95.3 23.1 95.3 28.7 98.1 32.2 102.9 32.2 107 32.2 109 30 109 30L109.3 32.7C109.3 32.7 106.8 34.2 101.7 34.2 95 34.2 90.5 30.2 90.5 23.3L90.5 23.3Z" fill="#05336E"/><path d="M133 22.5C133 29 133.1 31.6 133.3 33.8L128.4 33.8C128.7 31.7 128.7 29 128.7 22.5L128.7 14.2 119 14.2 119 22.5C119 29 119.1 31.6 119.3 33.8L114.4 33.8C114.7 31.7 114.7 29 114.7 22.5 114.7 16.5 114.6 14.1 114.4 12L133.3 12C133 14.2 133 16.5 133 22.5L133 22.5Z" fill="#05336E"/><path d="M155.7 26.8C155.7 31.2 152.4 34.2 147.5 34.2 142.5 34.2 139 31.6 139 23.7 139 15.8 141.8 12.9 148.5 12.3L151.4 12C153.1 11.8 154 11.1 154 11.1L154 15.6 148.2 15.9C143.1 16.2 141.2 17.9 141.1 22.9 142.3 20.6 144.8 19.3 147.9 19.3 152.7 19.4 155.7 22.4 155.7 26.8L155.7 26.8ZM151.3 26.8C151.3 23.4 149.7 21.2 147.5 21.2 145.2 21.2 143.7 23.4 143.7 26.8 143.7 30.2 145.3 32.4 147.5 32.4 149.8 32.4 151.3 30.2 151.3 26.8L151.3 26.8Z" fill="#05336E"/><path d="M174.9 15.3C171.8 14.2 169.6 14.1 166.5 14.1L166 14.1 166 22.6C166 29.1 166.1 31.7 166.3 33.9L161.4 33.9C161.7 31.8 161.7 29.1 161.7 22.6 161.7 16.6 161.6 14.2 161.4 12.1L174.9 12.1 174.9 15.3 174.9 15.3Z" fill="#05336E"/><path d="M197.3 22.6C197.3 29.9 192.3 34.2 184.9 34.2 181.3 34.2 178.6 33.5 178.6 33.5L178.6 29.5C178.6 29.5 180.9 32.4 184.7 32.4 189.4 32.4 192.3 29 192.5 23.5L191.3 23.5C188.1 23.5 185.7 23.7 182.2 24.2L182.2 20.8C185.7 21.4 188.1 21.6 191.3 21.6L192.4 21.6C192 16.7 189.3 13.6 184.8 13.6 180.9 13.6 178.7 16.3 178.7 16.3L178.4 13.2C178.4 13.2 180.8 11.7 185.2 11.7 192.7 11.7 197.3 15.8 197.3 22.6L197.3 22.6Z" fill="#05336E"/><path d="M217.8 12.1 217.8 15.3C215.3 14.3 213.6 14.1 211.8 14.1L211.1 14.1 211.1 22.6C211.1 29.1 211.2 31.7 211.4 33.9L206.5 33.9C206.8 31.8 206.8 29.1 206.8 22.6L206.8 14 206.2 14C204.2 14 202.5 14.3 200.1 15.2L200.1 12 217.8 12 217.8 12.1Z" fill="#05336E"/><path d="M241.4 12.1C239.4 15.3 238.5 18.5 236 24.2 233.1 30.8 231.4 34.1 226.7 34.1 225 34.1 224.2 33.5 224.2 33.5L224.2 30C224.2 30 225.5 31.5 227.4 31.5 228.9 31.5 230 30.8 230.8 29.5L223.2 16.6C222.2 15 221.8 14.4 220.3 12.1L226 12.1C226.5 14.2 226.9 15.1 228.8 18.4L233.1 25.6C233.3 25 233.6 24.3 233.9 23.6 236.2 17.4 236.9 15.6 237 12.2L241.4 12.2 241.4 12.1Z" fill="#05336E"/><path d="M254.8 16.4 256.4 16.4 253.3 22.3 256.4 28.2 254.8 28.2 250.7 22.3 254.8 16.4 254.8 16.4ZM259.8 16.4 261.4 16.4 258.3 22.3 261.4 28.2 259.8 28.2 255.7 22.3 259.8 16.4 259.8 16.4Z" fill="#05336E"/><path d="M284.8 33.8 279.2 33.8C279 31.5 278.9 30.4 277.2 26.5L273 16.3 269.2 26.4C267.8 30.1 267.5 31.4 267.2 33.8L263.4 33.8C264.5 31.5 264.9 30.6 266.6 26.4L272.5 12 274.6 12 274.6 12.1 274.7 12 275.9 12 282.2 27.7C283.3 30.6 283.7 31.5 284.8 33.8L284.8 33.8Z" fill="#05336E"/><path d="M305.9 22.6C305.9 29.9 300.9 34.2 293.4 34.2 289.8 34.2 287.1 33.5 287.1 33.5L287.1 29.5C287.1 29.5 289.4 32.4 293.2 32.4 297.9 32.4 300.8 29 301 23.5L299.8 23.5C296.6 23.5 294.2 23.7 290.7 24.2L290.7 20.8C294.2 21.4 296.6 21.6 299.8 21.6L300.9 21.6C300.5 16.7 297.8 13.6 293.3 13.6 289.4 13.6 287.2 16.3 287.2 16.3L286.9 13.2C286.9 13.2 289.3 11.7 293.7 11.7 301.3 11.7 305.9 15.8 305.9 22.6L305.9 22.6Z" fill="#05336E"/><path d="M326.4 12.1 326.4 15.3C323.9 14.3 322.2 14.1 320.4 14.1L319.7 14.1 319.7 22.6C319.7 29.1 319.8 31.7 320 33.9L315.1 33.9C315.4 31.8 315.4 29.1 315.4 22.6L315.4 14 314.8 14C312.8 14 311.1 14.3 308.7 15.2L308.7 12 326.4 12 326.4 12.1Z" fill="#05336E"/><path d="M350.6 22.5C350.6 29 350.7 31.6 350.9 33.8L346 33.8C346.3 31.7 346.3 29 346.3 22.5L346.3 16.2 336 33.8 331.4 33.8C331.7 31.7 331.7 29.3 331.7 23.3 331.7 16.8 331.6 14.2 331.4 12L336.3 12C336 14.1 336 16.8 336 23.3L336 29.6 346.3 12 350.9 12C350.6 14.2 350.6 16.5 350.6 22.5L350.6 22.5Z" fill="#05336E"/><path d="M357.9 28.3 356.3 28.3 359.4 22.4 356.3 16.5 357.9 16.5 362 22.4 357.9 28.3 357.9 28.3ZM362.9 28.3 361.3 28.3 364.4 22.4 361.3 16.5 362.9 16.5 367 22.4 362.9 28.3 362.9 28.3Z" fill="#05336E"/><path d="M101.5 53.2C101.5 56.4 101.5 57.6 101.7 58.7L99.3 58.7C99.4 57.7 99.5 56.4 99.5 53.2L99.5 49.1 94.8 49.1 94.8 53.2C94.8 56.4 94.8 57.6 95 58.7L92.6 58.7C92.7 57.7 92.8 56.4 92.8 53.2 92.8 50.3 92.8 49.1 92.6 48.1L101.8 48.1C101.5 49.1 101.5 50.3 101.5 53.2L101.5 53.2Z" fill="#05336E"/><path d="M112 56.9 112 58.6 105.1 58.6C105.2 57.6 105.3 56.3 105.3 53.1 105.3 50.2 105.3 49 105.1 48L111.7 48 111.7 49.6C110.2 49 109.1 49 107.6 49L107.3 49 107.3 52.6C108.6 52.6 109.4 52.5 110.7 52.2L110.7 54C109.4 53.7 108.6 53.7 107.3 53.7L107.3 57.8 107.9 57.8C109.4 57.7 110.6 57.6 112 56.9L112 56.9Z" fill="#05336E"/><path d="M122.3 51C122.3 53.2 120.8 54.4 117.8 54.4L117 54.4C117 56.5 117 57.6 117.2 58.6L114.8 58.6C114.9 57.6 115 56.3 115 53.1 115 50.2 115 49 114.8 48L118.5 48C120.9 48.1 122.3 49.1 122.3 51L122.3 51ZM120.1 51.2C120.1 49.8 119.4 49 117.9 49L117 49 117 53.4 117.6 53.4C119.3 53.5 120.1 52.7 120.1 51.2L120.1 51.2Z" fill="#05336E"/><path d="M133 55.6C133 57.6 131.4 58.7 128.4 58.7L125.1 58.7C125.2 57.7 125.3 56.4 125.3 53.2 125.3 50.3 125.3 49.1 125.1 48.1L128.9 48.1C131.4 48.1 132.6 48.9 132.6 50.5 132.6 51.7 131.9 52.8 130.1 53.1 132.3 53.3 133 54.3 133 55.6L133 55.6ZM127.4 49.1 127.4 52.7 128.2 52.7C129.7 52.7 130.5 52 130.5 50.7 130.5 49.6 129.8 49 128.4 49L127.4 49 127.4 49.1ZM130.9 55.7C130.9 54.3 129.8 53.6 128.2 53.6L127.4 53.6 127.4 57.7 128.2 57.7C129.9 57.7 130.9 57.1 130.9 55.7L130.9 55.7Z" fill="#05336E"/><path d="M143.2 55.3C143.2 57.5 141.7 58.7 138.7 58.7L138.1 58.7 138.1 58.7 135.9 58.7C136 57.7 136.1 56.5 136.1 53.6 136.1 50.4 136.1 49.2 135.9 48.1L138.3 48.1C138.2 49.2 138.1 50.3 138.1 52.3L139.4 52.3C141.8 52.3 143.2 53.4 143.2 55.3L143.2 55.3ZM141 55.5C141 54.1 140.3 53.3 138.8 53.3L138 53.3 138 57.7 138.5 57.7C140.3 57.7 141 56.9 141 55.5L141 55.5ZM146.5 53.2C146.5 56.4 146.5 57.6 146.7 58.7L144.3 58.7C144.4 57.7 144.5 56.4 144.5 53.2 144.5 50.3 144.5 49.1 144.3 48.1L146.7 48.1C146.6 49.1 146.5 50.3 146.5 53.2L146.5 53.2Z" fill="#05336E"/><path d="M159.5 53.2C159.5 56.4 159.5 57.6 159.7 58.7L157.3 58.7C157.4 57.7 157.5 56.4 157.5 53.2L157.5 50.1 152.5 58.7 150.3 58.7C150.4 57.7 150.5 56.5 150.5 53.6 150.5 50.4 150.5 49.2 150.3 48.1L152.7 48.1C152.6 49.1 152.5 50.4 152.5 53.6L152.5 56.7 157.5 48.1 159.7 48.1C159.5 49.1 159.5 50.3 159.5 53.2L159.5 53.2ZM151.9 45.2 153.8 45.2C153.8 45.2 153.7 46.8 155 46.8 156.3 46.8 156.2 45.2 156.2 45.2L158.1 45.2C158.1 45.2 157.7 47.6 155.1 47.6 152.3 47.6 151.9 45.2 151.9 45.2L151.9 45.2Z" fill="#05336E"/><path d="M176.1 53.2C176.1 56.7 173.7 58.9 170 58.9 168.2 58.9 166.9 58.5 166.9 58.5L166.9 56.5C166.9 56.5 168 57.9 169.9 57.9 172.2 57.9 173.6 56.2 173.7 53.6L173.1 53.6C171.5 53.6 170.4 53.7 168.7 53.9L168.7 52.2C170.4 52.5 171.6 52.6 173.1 52.6L173.7 52.6C173.5 50.2 172.2 48.7 170 48.7 168.1 48.7 167 50 167 50L166.8 48.5C166.8 48.5 168 47.8 170.1 47.8 173.9 47.9 176.1 49.9 176.1 53.2L176.1 53.2Z" fill="#05336E"/><path d="M187.7 58.7 185 58.7C184.9 57.6 184.8 57.1 184 55.1L181.9 50.1 180.1 55C179.4 56.8 179.3 57.4 179.1 58.6L177.3 58.6C177.8 57.5 178 57 178.8 55L181.7 48 182.7 48 182.7 48 182.7 48 183.3 48 186.4 55.6C187 57.1 187.2 57.6 187.7 58.7L187.7 58.7Z" fill="#05336E"/><path d="M196.7 56.9 196.7 58.6 189.8 58.6C189.9 57.6 190 56.3 190 53.1 190 50.2 190 49 189.8 48L196.4 48 196.4 49.6C194.9 49 193.8 49 192.3 49L192 49 192 52.6C193.3 52.6 194.1 52.5 195.4 52.2L195.4 54C194.1 53.7 193.3 53.7 192 53.7L192 57.8 192.6 57.8C194.1 57.7 195.4 57.6 196.7 56.9L196.7 56.9Z" fill="#05336E"/><path d="M201.9 48.1C201.8 49.1 201.7 50.3 201.7 53.2 201.7 56.4 201.7 57.6 201.9 58.7L199.5 58.7C199.6 57.7 199.7 56.4 199.7 53.2 199.7 50.3 199.7 49.1 199.5 48.1L201.9 48.1 201.9 48.1ZM209.1 58.7 205.9 58.7 202 53.1 204.1 50.9C205.3 49.7 205.8 49.1 206.3 48.1L208.6 48.1C208.6 48.1 207.3 49.2 206.1 50.4L204 52.5 205.8 54.9C207 56.6 207.8 57.5 209.1 58.7L209.1 58.7Z" fill="#05336E"/><path d="M218.6 48.1 218.6 49.7C217.4 49.2 216.6 49.1 215.7 49.1L215.4 49.1 215.4 53.2C215.4 56.4 215.4 57.6 215.6 58.7L213.2 58.7C213.3 57.7 213.4 56.4 213.4 53.2L213.4 49.1 213 49.1C212 49.1 211.2 49.2 210 49.7L210 48.1 218.6 48.1 218.6 48.1Z" fill="#05336E"/><path d="M228.6 51C228.6 53.2 227.1 54.4 224.1 54.4L223.4 54.4C223.4 56.5 223.4 57.6 223.6 58.6L221.2 58.6C221.3 57.6 221.4 56.3 221.4 53.1 221.4 50.2 221.4 49 221.2 48L224.9 48C227.2 48.1 228.6 49.1 228.6 51L228.6 51ZM226.4 51.2C226.4 49.8 225.7 49 224.2 49L223.3 49 223.3 53.4 223.9 53.4C225.6 53.5 226.4 52.7 226.4 51.2L226.4 51.2Z" fill="#05336E"/><path d="M230.7 53.5C230.7 50 232.8 47.9 236.4 47.9 239.7 47.9 241.7 50 241.7 53.3 241.7 56.8 239.6 58.9 236 58.9 232.7 58.9 230.7 56.8 230.7 53.5L230.7 53.5ZM239.4 53.5C239.4 50.6 238.2 48.9 236.1 48.9 234.2 48.9 233 50.6 233 53.4 233 56.3 234.2 58 236.3 58 238.2 57.9 239.4 56.2 239.4 53.5L239.4 53.5Z" fill="#05336E"/><path d="M251.7 48.1 251.7 49.7C250.5 49.2 249.7 49.1 248.8 49.1L248.5 49.1 248.5 53.2C248.5 56.4 248.5 57.6 248.7 58.7L246.3 58.7C246.4 57.7 246.5 56.4 246.5 53.2L246.5 49.1 246.2 49.1C245.2 49.1 244.4 49.2 243.2 49.7L243.2 48.1 251.7 48.1 251.7 48.1Z" fill="#05336E"/><path d="M261.1 56.9 261.1 58.6 254.2 58.6C254.3 57.6 254.4 56.3 254.4 53.1 254.4 50.2 254.4 49 254.2 48L260.8 48 260.8 49.6C259.3 49 258.2 49 256.7 49L256.4 49 256.4 52.6C257.7 52.6 258.5 52.5 259.8 52.2L259.8 54C258.5 53.7 257.7 53.7 256.4 53.7L256.4 57.8 257 57.8C258.6 57.7 259.8 57.6 261.1 56.9L261.1 56.9Z" fill="#05336E"/><path d="M272.4 58.7 269.5 58.7C269.2 57.7 268.9 57.2 267.9 55.7L267.1 54.4 266.3 55.6C265.4 57 265 57.7 264.8 58.7L262.7 58.7C262.7 58.7 263.4 57.8 264.3 56.5L266.4 53.5 264.3 50.2C263.5 48.9 262.7 48.1 262.7 48.1L265.5 48.1C265.8 49.1 266.1 49.6 267.1 51.1L267.8 52.1 268.4 51.2C269.3 49.8 269.7 49.1 269.9 48.1L272 48.1C272 48.1 271.3 49 270.4 50.3L268.4 53 270.7 56.5C271.6 57.9 272.4 58.7 272.4 58.7L272.4 58.7Z" fill="#05336E"/><path d="M283.9 53.2C283.9 56.4 283.9 57.6 284.1 58.7L281.7 58.7C281.8 57.7 281.9 56.5 281.9 53.7L277 53.7C277 56.5 277 57.7 277.2 58.7L274.8 58.7C274.9 57.7 275 56.4 275 53.2 275 50.3 275 49.1 274.8 48.1L277.2 48.1C277.1 49.1 277 50.1 277 52.6L281.9 52.6C281.9 50.1 281.9 49 281.7 48.1L284.1 48.1C283.9 49.1 283.9 50.3 283.9 53.2L283.9 53.2Z" fill="#05336E"/><path d="M296.8 53.2C296.8 56.4 296.8 57.6 297 58.7L294.6 58.7C294.7 57.7 294.8 56.4 294.8 53.2L294.8 50.1 289.8 58.7 287.6 58.7C287.7 57.7 287.8 56.5 287.8 53.6 287.8 50.4 287.8 49.2 287.6 48.1L290 48.1C289.9 49.1 289.8 50.4 289.8 53.6L289.8 56.7 294.8 48.1 297 48.1C296.8 49.1 296.8 50.3 296.8 53.2L296.8 53.2Z" fill="#05336E"/><path d="M307.9 53.2C307.9 56.4 307.9 57.6 308.1 58.7L305.7 58.7C305.8 57.8 305.9 56.6 305.9 54.1 305.4 54.3 304.3 54.7 303 54.7 300.9 54.7 300.1 53.6 300.1 51.8 300.1 50.2 300.1 49.1 299.9 48.1L302.3 48.1C302.2 49.2 302.1 50.5 302.1 51.6 302.1 52.8 302.6 53.4 303.7 53.4 304.6 53.4 305.5 53.2 305.9 53 305.9 50.2 305.9 49 305.7 48L308.1 48C308 49.1 307.9 50.3 307.9 53.2L307.9 53.2Z" fill="#05336E"/><path d="M318.4 56.9 318.4 58.6 311.5 58.6C311.6 57.6 311.7 56.3 311.7 53.1 311.7 50.2 311.7 49 311.5 48L318.1 48 318.1 49.6C316.6 49 315.5 49 314 49L313.7 49 313.7 52.6C315 52.6 315.8 52.5 317.1 52.2L317.1 54C315.8 53.7 315 53.7 313.7 53.7L313.7 57.8 314.3 57.8C315.9 57.7 317.1 57.6 318.4 56.9L318.4 56.9Z" fill="#05336E"/><path d="M320.5 53.6C320.5 50 322.9 47.9 326.4 47.9 328.1 47.9 329.3 48.3 329.3 48.3L329.3 50.3C329.3 50.3 328.3 48.9 326.4 48.9 324.1 48.9 322.7 50.7 322.7 53.5 322.7 56.2 324.1 57.9 326.4 57.9 328.4 57.9 329.4 56.8 329.4 56.8L329.6 58.1C329.6 58.1 328.4 58.8 325.9 58.8 322.7 58.9 320.5 56.9 320.5 53.6L320.5 53.6Z" fill="#05336E"/><path d="M334.6 48.1C334.5 49.1 334.4 50.3 334.4 53.2 334.4 56.4 334.4 57.6 334.6 58.7L332.2 58.7C332.3 57.7 332.4 56.4 332.4 53.2 332.4 50.3 332.4 49.1 332.2 48.1L334.6 48.1 334.6 48.1ZM341.7 58.7 338.5 58.7 334.6 53.1 336.7 50.9C337.9 49.7 338.4 49.1 338.9 48.1L341.2 48.1C341.2 48.1 339.9 49.2 338.7 50.4L336.6 52.5 338.4 54.9C339.7 56.6 340.4 57.5 341.7 58.7L341.7 58.7Z" fill="#05336E"/><path d="M353 53.2C353 56.4 353 57.6 353.2 58.7L350.8 58.7C350.9 57.7 351 56.4 351 53.2L351 50.1 346 58.7 343.8 58.7C343.9 57.7 344 56.5 344 53.6 344 50.4 344 49.2 343.8 48.1L346.2 48.1C346.1 49.1 346 50.4 346 53.6L346 56.7 351 48.1 353.2 48.1C353 49.1 353 50.3 353 53.2L353 53.2Z" fill="#05336E"/><path d="M365.9 53.2C365.9 56.4 365.9 57.6 366.1 58.7L363.7 58.7C363.8 57.7 363.9 56.4 363.9 53.2L363.9 50.1 358.9 58.7 356.7 58.7C356.8 57.7 356.9 56.5 356.9 53.6 356.9 50.4 356.9 49.2 356.7 48.1L359.1 48.1C359 49.1 358.9 50.4 358.9 53.6L358.9 56.7 363.9 48.1 366.1 48.1C365.9 49.1 365.9 50.3 365.9 53.2L365.9 53.2ZM358.4 45.2 360.3 45.2C360.3 45.2 360.2 46.8 361.5 46.8 362.8 46.8 362.7 45.2 362.7 45.2L364.6 45.2C364.6 45.2 364.2 47.6 361.6 47.6 358.8 47.6 358.4 45.2 358.4 45.2L358.4 45.2Z" fill="#05336E"/><path d="M41.1 38.1C41.2 39 41.2 40.1 41.2 42.7 41.2 45.6 41.2 46.7 41.1 47.7L43.2 47.7C43.1 46.7 43.1 45.6 43.1 42.7 43.1 40 43.1 39 43.2 38.1L41.1 38.1 41.1 38.1Z" fill="#05336E"/><path d="M45.1 45.1C45.1 46.8 46.4 47.8 48.6 47.8 50.9 47.8 52.2 46.8 52.2 45 52.2 43.8 51.5 43 50.3 42.6 51.3 42.2 51.9 41.5 51.9 40.4 51.9 38.8 50.7 37.9 48.7 37.9 46.6 37.9 45.4 38.9 45.4 40.5 45.4 41.5 46 42.3 47 42.7 45.8 43.1 45.1 43.9 45.1 45.1L45.1 45.1ZM48.6 38.8C49.5 38.8 50 39.5 50 40.6 50 41.7 49.5 42.3 48.7 42.3 47.8 42.3 47.3 41.6 47.3 40.5 47.3 39.4 47.8 38.8 48.6 38.8L48.6 38.8ZM48.6 43.2C49.6 43.2 50.2 43.9 50.2 45.2 50.2 46.4 49.6 47.1 48.6 47.1 47.6 47.1 47 46.4 47 45.1 47.1 43.9 47.7 43.2 48.6 43.2L48.6 43.2Z" fill="#05336E"/><path d="M53.6 45.1C53.6 46.8 54.9 47.8 57.1 47.8 59.4 47.8 60.7 46.8 60.7 45 60.7 43.8 60 43 58.8 42.6 59.8 42.2 60.4 41.5 60.4 40.4 60.4 38.8 59.2 37.9 57.2 37.9 55.1 37.9 53.9 38.9 53.9 40.5 53.9 41.5 54.5 42.3 55.5 42.7 54.3 43.1 53.6 43.9 53.6 45.1L53.6 45.1ZM57.2 38.8C58.1 38.8 58.6 39.5 58.6 40.6 58.6 41.7 58.1 42.3 57.3 42.3 56.4 42.3 55.9 41.6 55.9 40.5 55.8 39.4 56.3 38.8 57.2 38.8L57.2 38.8ZM57.2 43.2C58.2 43.2 58.8 43.9 58.8 45.2 58.8 46.4 58.2 47.1 57.2 47.1 56.2 47.1 55.6 46.4 55.6 45.1 55.6 43.9 56.2 43.2 57.2 43.2L57.2 43.2Z" fill="#05336E"/><path d="M66.3 41.5C65.2 41.5 64.5 42 64.1 42.5 64.2 40.3 64.8 38.8 66.3 38.8 67.5 38.8 68.2 40 68.2 40L68.2 38.3C68.2 38.3 67.5 38 66.2 38 63.8 38 62 39.9 62 43.2 62 46.5 63.4 48 65.7 48 67.8 48 69.1 46.7 69.1 44.6 69.2 42.6 68.1 41.5 66.3 41.5L66.3 41.5ZM65.9 46.9C64.9 46.9 64.3 46.1 64.2 43.5 64.5 43.1 65.1 42.7 65.8 42.7 66.8 42.7 67.3 43.4 67.3 44.7 67.3 46.1 66.7 46.9 65.9 46.9L65.9 46.9Z" fill="#05336E"/><path d="M59.6 10.2C46-3.4 23.9-3.4 10.3 10.2 3.6 16.8 0.2 25.4 0 34.1L0 34.1 0 34.2C0 34.6 0 34.9 0 35.3 0 35.1 0 35 0 34.8 0 37.8 0.3 40.8 1.1 43.8 6 62.5 25 73.7 43.7 68.9 52.5 66.6 59.6 61.2 64.2 54.1L64.1 54.1C59.9 60.1 53.7 64.7 46 66.7 29 71.1 11.6 60.9 7.2 43.9 6.4 40.6 6.1 37.4 6.2 34.2L7.6 34.2C7.5 36.8 7.8 39.5 8.5 42.1 12.5 57.4 28.1 66.5 43.3 62.6 48.9 61.2 53.6 58.1 57.2 54.1L57.2 54.1C52.6 58.4 46.5 61.1 39.7 61.1 32.4 61.1 25.8 58 21.1 53.1 21 53 20.9 52.9 20.9 52.9 20.8 52.8 20.7 52.7 20.7 52.6 18.1 49.7 16 46.1 15 42 14.3 39.4 14.1 36.8 14.3 34.2L15.9 34.2C15.8 36.4 16 38.6 16.6 40.8 19.6 52.5 31.6 59.6 43.3 56.5 45.3 56 47.2 55.2 48.9 54.1L48.5 54.1C46.2 55.1 43.6 55.7 41 55.7 30.5 55.7 22 47.2 22 36.7 22 35.8 22.1 35 22.2 34.2L27.2 34.2 47.7 34.2 47.7 34.2 54.4 34.2 54.4 34.2 63.8 34.2 69.9 34.2 69.9 34.2C69.6 25.5 66.2 16.8 59.6 10.2L59.6 10.2ZM11.1 33.1C11.8 29.6 13.4 26.2 16.1 23.5 23.3 16.3 35.1 16.3 42.3 23.5 44.2 25.4 45.6 27.6 46.4 29.9L11.1 33.1 11.1 33.1ZM47.9 20.7C39.3 12.1 25.5 12.1 16.9 20.7 13.4 24.2 11.4 28.6 10.8 33.2L5.1 33.7C5.8 28.3 8.2 23 12.4 18.9 22.4 8.9 38.6 8.9 48.6 18.9 51.6 21.9 53.7 25.4 54.9 29.2L53.3 29.3C52.2 26.2 50.4 23.2 47.9 20.7L47.9 20.7ZM61.5 28.6C60.3 23.8 57.8 19.3 54 15.5 42.8 4.3 24.6 4.3 13.3 15.5 8.2 20.6 5.5 27.1 5 33.7L1.8 34 0 34.1C0.4 26.5 3.5 19.1 9.3 13.3 21.7 0.8 41.9 0.8 54.4 13.3 58.7 17.6 61.5 22.9 62.8 28.5L61.5 28.6 61.5 28.6Z" fill="#05336E"/></svg>