<svg viewBox="0 0 343 96" xmlns="http://www.w3.org/2000/svg" xmlns:xlink="http://www.w3.org/1999/xlink" id="Layer_1" overflow="hidden"><g><g><path d="M106.4 35.6 104.6 35.6 104.6 24.6 106.4 24.6 110.1 29.6 113.8 24.6 115.6 24.6 115.6 35.6 113.8 35.6 113.8 27.2 110.6 31.4 109.5 31.4 106.3 27.2 106.4 35.6 106.4 35.6Z" fill="#58595B"/><path d="M120.1 35.6 118.5 35.6 118.5 24.6 120.3 24.6 120.3 32.7 126.6 24.6 128.2 24.6 128.2 35.6 126.4 35.6 126.4 27.5 120.1 35.6Z" fill="#58595B"/><path d="M132.8 35.6 131 35.6 131 24.6 132.8 24.6 132.8 29 138.8 29 138.8 24.6 140.6 24.6 140.6 35.6 138.8 35.6 138.8 30.5 132.8 30.5 132.8 35.6Z" fill="#58595B"/><path d="M145 35.6 143.5 35.6 143.5 24.6 145.3 24.6 145.3 32.7 151.6 24.6 153.2 24.6 153.2 35.6 151.4 35.6 151.4 27.5 145 35.6Z" fill="#58595B"/><path d="M161.5 35.8C159.8 35.8 158.3 35.3 157.2 34.2 156 33.1 155.5 31.7 155.5 30.1 155.5 28.4 156.1 27.1 157.2 26 158.4 24.9 159.8 24.4 161.5 24.4 162.7 24.4 163.7 24.7 164.6 25.1L164.6 26.8C163.7 26.2 162.7 25.9 161.5 25.9 160.3 25.9 159.3 26.3 158.5 27.1 157.7 27.9 157.3 28.8 157.3 30 157.3 31.2 157.7 32.2 158.5 32.9 159.3 33.7 160.3 34.1 161.6 34.1 162.9 34.1 164 33.8 164.9 33.1L164.9 34.8C163.8 35.5 162.7 35.8 161.5 35.8Z" fill="#58595B"/><path d="M166.3 26.2 166.3 24.6 175.7 24.6 175.7 26.2 171.9 26.2 171.9 35.7 170.1 35.7 170.1 26.2 166.3 26.2Z" fill="#58595B"/><path d="M186 35.6 177.6 35.6 177.6 24.6 185.8 24.6 185.8 26.2 179.4 26.2 179.4 29 184.6 29 184.6 30.6 179.4 30.6 179.4 34 186 34 186 35.6 186 35.6Z" fill="#58595B"/><path d="M189.7 35.6 188 35.6 188 24.6 193 24.6C194.2 24.6 195.2 24.9 195.8 25.5 196.5 26.1 196.9 26.9 196.9 27.8 196.9 28.7 196.5 29.5 195.8 30.2 195.1 30.8 194.2 31.1 193 31.1L189.8 31.1 189.8 35.6 189.7 35.6ZM189.7 26.2 189.7 29.5 192.7 29.5C193.4 29.5 193.9 29.3 194.3 29.1 194.7 28.8 194.9 28.4 194.9 27.9 194.9 27.4 194.7 27 194.3 26.7 193.9 26.4 193.4 26.3 192.7 26.3L189.7 26.2 189.7 26.2Z" fill="#58595B"/><path d="M204.4 35.8C202.7 35.8 201.2 35.3 200.1 34.2 198.9 33.1 198.4 31.7 198.4 30.1 198.4 28.4 199 27.1 200.1 26 201.3 24.9 202.7 24.4 204.4 24.4 205.6 24.4 206.6 24.7 207.5 25.1L207.5 26.8C206.6 26.2 205.6 25.9 204.4 25.9 203.2 25.9 202.2 26.3 201.4 27.1 200.6 27.9 200.2 28.8 200.2 30 200.2 31.2 200.6 32.2 201.4 32.9 202.2 33.7 203.2 34.1 204.5 34.1 205.8 34.1 206.9 33.8 207.8 33.1L207.8 34.8C206.8 35.5 205.7 35.8 204.4 35.8Z" fill="#58595B"/><path d="M209.2 26.2 209.2 24.6 218.6 24.6 218.6 26.2 214.8 26.2 214.8 35.7 213 35.7 213 26.2 209.2 26.2Z" fill="#58595B"/><path d="M226.1 35.6 220.5 35.6 220.5 24.6 225.7 24.6C226.8 24.6 227.5 24.9 228.2 25.3 228.8 25.8 229.1 26.5 229.1 27.3 229.1 27.8 228.9 28.3 228.7 28.7 228.4 29.1 228.1 29.4 227.6 29.5 228.3 29.6 228.9 30 229.3 30.5 229.7 31 230 31.7 230 32.5 230 33.4 229.6 34.2 228.9 34.8 228.3 35.3 227.4 35.6 226.1 35.6ZM222.3 26.2 222.3 29 225.4 29C226 29 226.5 28.9 226.8 28.6 227.1 28.3 227.3 28 227.3 27.5 227.3 27 227.1 26.7 226.8 26.4 226.5 26.1 226 26 225.4 26L222.3 26 222.3 26.2ZM222.3 30.5 222.3 34 225.8 34C226.5 34 227.1 33.8 227.4 33.5 227.8 33.2 228 32.8 228 32.2 228 31.7 227.8 31.3 227.4 30.9 227 30.6 226.5 30.5 225.8 30.5 225.8 30.5 222.3 30.5 222.3 30.5Z" fill="#58595B"/><path d="M241.8 34.2C240.7 35.3 239.3 35.8 237.6 35.8 235.9 35.8 234.5 35.3 233.4 34.2 232.3 33.1 231.8 31.7 231.8 30.1 231.8 28.5 232.3 27.1 233.4 26.1 234.5 25 235.9 24.4 237.6 24.4 239.3 24.4 240.7 25 241.8 26.1 242.9 27.2 243.5 28.6 243.5 30.1 243.5 31.6 242.9 33.1 241.8 34.2ZM234.8 33C235.6 33.8 236.5 34.2 237.6 34.2 238.7 34.2 239.7 33.8 240.4 33 241.2 32.2 241.6 31.2 241.6 30.1 241.6 28.9 241.2 27.9 240.4 27.2 239.6 26.4 238.7 26 237.6 26 236.5 26 235.5 26.4 234.8 27.2 234 28 233.6 28.9 233.6 30.1 233.6 31.3 234 32.2 234.8 33Z" fill="#58595B"/><path d="M252 35.6 250.2 35.6 250.2 24.6 252 24.6 252 29 258 29 258 24.6 259.8 24.6 259.8 35.6 258 35.6 258 30.5 252 30.5 252 35.6Z" fill="#58595B"/><path d="M263.5 35.6 261.6 35.6 266.6 24.5 268.3 24.5 273.3 35.6 271.4 35.6 270.1 32.9 264.7 32.9 263.5 35.6ZM267.5 26.7 265.4 31.3 269.6 31.3 267.5 26.7Z" fill="#58595B"/><path d="M276.8 35.8C276.1 35.8 275.5 35.7 275.2 35.5L275.2 33.9C275.6 34.1 276 34.2 276.5 34.2 277 34.2 277.3 34.1 277.7 33.8 278 33.6 278.3 33.1 278.7 32.3L274.2 24.5 276.3 24.5 279.7 30.5 282.5 24.5 284.4 24.5 280.2 33.2C279.3 35 278.2 35.8 276.8 35.8Z" fill="#58595B"/><path d="M287.9 35.6 286.1 35.6 286.1 24.6 287.9 24.6 287.9 29.1 292.6 24.6 294.9 24.6 289.6 29.6 295.8 35.6 293.4 35.6 288 30.3 288 35.6 287.9 35.6Z" fill="#58595B"/><path d="M299 35.6 297.5 35.6 297.5 24.6 299.3 24.6 299.3 32.7 305.6 24.6 307.2 24.6 307.2 35.6 305.4 35.6 305.4 27.5 299 35.6Z" fill="#58595B"/><path d="M106.2 54.7 104.7 54.7 104.7 43.7 106.5 43.7 106.5 51.8 112.8 43.7 114.4 43.7 114.4 54.7 112.6 54.7 112.6 46.6 106.2 54.7Z" fill="#58595B"/><path d="M127.1 54.7 121.5 54.7 121.5 43.7 126.7 43.7C127.8 43.7 128.5 44 129.2 44.4 129.8 44.9 130.1 45.6 130.1 46.4 130.1 46.9 129.9 47.4 129.7 47.8 129.5 48.2 129.1 48.5 128.6 48.6 129.3 48.7 129.9 49.1 130.3 49.6 130.7 50.1 131 50.8 131 51.6 131 52.5 130.6 53.3 129.9 53.9 129.2 54.4 128.3 54.7 127.1 54.7ZM123.3 45.2 123.3 48 126.4 48C127 48 127.5 47.9 127.8 47.6 128.1 47.3 128.3 47 128.3 46.5 128.3 46 128.1 45.7 127.8 45.4 127.5 45.1 127 45 126.4 45L123.3 45 123.3 45.2ZM123.3 49.6 123.3 53.1 126.8 53.1C127.5 53.1 128.1 52.9 128.4 52.6 128.8 52.3 129 51.9 129 51.3 129 50.8 128.8 50.4 128.4 50 128 49.7 127.5 49.6 126.8 49.6L123.3 49.6Z" fill="#58595B"/><path d="M137.6 54.7 133.2 54.7 133.2 43.7 135 43.7 135 47.5 137.6 47.5C138.9 47.5 140 47.8 140.8 48.5 141.6 49.2 142 50 142 51.1 142 52.2 141.6 53 140.8 53.7 139.9 54.4 138.9 54.7 137.6 54.7ZM135 49.1 135 53.1 137.5 53.1C138.3 53.1 138.9 52.9 139.4 52.6 139.9 52.3 140.1 51.8 140.1 51.1 140.1 50.4 139.9 49.9 139.4 49.6 138.9 49.3 138.3 49.1 137.5 49.1L135 49.1ZM145.2 54.7 143.4 54.7 143.4 43.7 145.2 43.7 145.2 54.7Z" fill="#58595B"/><path d="M153.5 54.9C151.8 54.9 150.3 54.4 149.2 53.3 148 52.2 147.5 50.8 147.5 49.2 147.5 47.5 148.1 46.2 149.2 45.1 150.4 44 151.8 43.5 153.5 43.5 154.7 43.5 155.7 43.8 156.6 44.2L156.6 45.9C155.7 45.3 154.7 45 153.5 45 152.3 45 151.3 45.4 150.5 46.2 149.7 47 149.3 47.9 149.3 49.1 149.3 50.3 149.7 51.3 150.5 52 151.3 52.8 152.3 53.2 153.6 53.2 154.9 53.2 156 52.9 156.9 52.2L156.9 53.9C155.9 54.6 154.8 54.9 153.5 54.9Z" fill="#58595B"/><path d="M173.1 54.7 159.1 54.7 159.1 43.7 160.9 43.7 160.9 53.2 165.2 53.2 165.2 43.7 167 43.7 167 53.2 171.3 53.2 171.3 43.7 173.1 43.7 173.1 54.7 173.1 54.7Z" fill="#58595B"/><path d="M184.2 54.7 175.8 54.7 175.8 43.7 184 43.7 184 45.3 177.6 45.3 177.6 48 182.8 48 182.8 49.6 177.6 49.6 177.6 53.1 184.2 53.1 184.2 54.7 184.2 54.7Z" fill="#58595B"/><path d="M188 54.7 186.2 54.7 186.2 43.7 194.3 43.7 194.3 45.3 188 45.3 188 54.7Z" fill="#58595B"/><path d="M205.4 53.3C204.3 54.4 202.9 54.9 201.2 54.9 199.5 54.9 198.1 54.4 197 53.3 195.9 52.2 195.4 50.8 195.4 49.2 195.4 47.6 195.9 46.2 197 45.2 198.1 44.1 199.5 43.5 201.2 43.5 202.9 43.5 204.3 44.1 205.4 45.2 206.5 46.3 207.1 47.7 207.1 49.2 207.1 50.7 206.5 52.2 205.4 53.3ZM198.3 52.1C199.1 52.9 200 53.3 201.1 53.3 202.2 53.3 203.2 52.9 203.9 52.1 204.7 51.3 205.1 50.3 205.1 49.2 205.1 48 204.7 47 203.9 46.3 203.1 45.5 202.2 45.1 201.1 45.1 200 45.1 199 45.5 198.3 46.3 197.5 47.1 197.1 48 197.1 49.2 197.2 50.4 197.5 51.3 198.3 52.1Z" fill="#58595B"/><path d="M223.4 53.3C222.3 54.4 220.9 54.9 219.2 54.9 217.5 54.9 216.1 54.4 215 53.3 213.9 52.2 213.4 50.8 213.4 49.2 213.4 47.6 213.9 46.2 215 45.2 216.1 44.1 217.5 43.5 219.2 43.5 220.9 43.5 222.3 44.1 223.4 45.2 224.5 46.3 225.1 47.7 225.1 49.2 225.1 50.7 224.5 52.2 223.4 53.3ZM216.3 52.1C217.1 52.9 218 53.3 219.1 53.3 220.2 53.3 221.2 52.9 221.9 52.1 222.7 51.3 223.1 50.3 223.1 49.2 223.1 48 222.7 47 221.9 46.3 221.1 45.5 220.2 45.1 219.1 45.1 218 45.1 217 45.5 216.3 46.3 215.5 47.1 215.1 48 215.1 49.2 215.2 50.4 215.6 51.3 216.3 52.1Z" fill="#58595B"/><path d="M232.2 54.7 227.4 54.7 227.4 43.7 235.5 43.7 235.5 45.3 229.2 45.3 229.2 47.6 232.3 47.6C233.6 47.6 234.6 47.9 235.4 48.6 236.1 49.2 236.6 50.1 236.6 51.2 236.6 52.3 236.2 53.1 235.4 53.8 234.6 54.4 233.5 54.7 232.2 54.7ZM229.1 49.2 229.1 53.1 232 53.1C232.8 53.1 233.4 52.9 233.9 52.6 234.3 52.2 234.6 51.8 234.6 51.2 234.6 50.6 234.4 50.1 233.9 49.7 233.4 49.3 232.8 49.2 232 49.2L229.1 49.2Z" fill="#58595B"/><path d="M240.3 54.7 238.5 54.7 238.5 43.7 243.4 43.7C244.6 43.7 245.6 44 246.2 44.6 246.9 45.2 247.3 46 247.3 46.9 247.3 47.8 246.9 48.6 246.2 49.3 245.5 49.9 244.6 50.2 243.4 50.2L240.2 50.2 240.2 54.7 240.3 54.7ZM240.3 45.2 240.3 48.5 243.3 48.5C244 48.5 244.5 48.3 244.9 48.1 245.3 47.9 245.5 47.4 245.5 46.9 245.5 46.4 245.3 46 244.9 45.7 244.5 45.4 244 45.3 243.3 45.3L240.3 45.2 240.3 45.2Z" fill="#58595B"/><path d="M249 54.7 247.1 54.7 252.1 43.6 253.8 43.6 258.8 54.7 257 54.7 255.7 52 250.3 52 249 54.7ZM253 45.7 250.9 50.3 255.1 50.3 253 45.7Z" fill="#58595B"/><path d="M264.3 54.9C262.7 54.9 261.4 54.6 260.3 54L260.3 52.3C260.8 52.6 261.4 52.9 262.1 53 262.8 53.2 263.4 53.3 264.1 53.3 265 53.3 265.8 53.1 266.4 52.8 267 52.4 267.2 52 267.2 51.4 267.2 50.9 266.9 50.5 266.4 50.1 265.9 49.8 265.2 49.6 264.3 49.6L263 49.6 263 48 264.6 48C265.3 48 265.9 47.8 266.2 47.6 266.6 47.3 266.8 47 266.8 46.5 266.8 46 266.6 45.7 266.1 45.4 265.7 45.1 265 45 264.3 45 263.1 45 261.9 45.3 260.8 45.8L260.8 44.2C261.9 43.6 263.1 43.4 264.4 43.4 265.7 43.4 266.7 43.7 267.4 44.2 268.2 44.7 268.6 45.5 268.6 46.4 268.6 47 268.4 47.5 268 47.9 267.6 48.3 267.2 48.6 266.8 48.7 267.4 48.9 267.9 49.2 268.4 49.7 268.9 50.2 269.1 50.8 269.1 51.5 269.1 52.5 268.7 53.3 267.8 54 266.8 54.6 265.7 54.9 264.3 54.9Z" fill="#58595B"/><path d="M280.8 53.3C279.7 54.4 278.3 54.9 276.6 54.9 274.9 54.9 273.5 54.4 272.4 53.3 271.3 52.2 270.8 50.8 270.8 49.2 270.8 47.6 271.3 46.2 272.4 45.2 273.5 44.1 274.9 43.5 276.6 43.5 278.3 43.5 279.7 44.1 280.8 45.2 281.9 46.3 282.5 47.7 282.5 49.2 282.5 50.7 281.9 52.2 280.8 53.3ZM273.7 52.1C274.5 52.9 275.4 53.3 276.5 53.3 277.6 53.3 278.6 52.9 279.3 52.1 280.1 51.3 280.5 50.3 280.5 49.2 280.5 48 280.1 47 279.3 46.3 278.5 45.6 277.6 45.1 276.5 45.1 275.4 45.1 274.4 45.5 273.7 46.3 272.9 47.1 272.5 48 272.5 49.2 272.6 50.4 273 51.3 273.7 52.1Z" fill="#58595B"/><path d="M290.4 54.7 284.8 54.7 284.8 43.7 290 43.7C291.1 43.7 291.8 44 292.5 44.4 293.1 44.9 293.4 45.6 293.4 46.4 293.4 46.9 293.2 47.4 293 47.8 292.7 48.2 292.4 48.5 291.9 48.6 292.6 48.7 293.2 49.1 293.6 49.6 294 50.1 294.3 50.8 294.3 51.6 294.3 52.5 293.9 53.3 293.2 53.9 292.5 54.4 291.5 54.7 290.4 54.7ZM286.5 45.2 286.5 48 289.6 48C290.2 48 290.7 47.9 291 47.6 291.3 47.3 291.5 47 291.5 46.5 291.5 46 291.3 45.7 291 45.4 290.7 45.1 290.2 45 289.6 45L286.5 45 286.5 45.2ZM286.5 49.6 286.5 53.1 290 53.1C290.7 53.1 291.3 52.9 291.6 52.6 292 52.3 292.2 51.9 292.2 51.3 292.2 50.8 292 50.4 291.6 50 291.2 49.7 290.7 49.6 290 49.6L286.5 49.6Z" fill="#58595B"/><path d="M297.2 54.7 295.3 54.7 300.3 43.6 302 43.6 307 54.7 305.1 54.7 303.8 52 298.4 52 297.2 54.7ZM301.2 45.7 299.1 50.3 303.3 50.3 301.2 45.7Z" fill="#58595B"/><path d="M310.7 54.7 308.9 54.7 308.9 43.7 310.7 43.7 310.7 48 316.7 48 316.7 43.6 318.5 43.6 318.5 54.6 316.7 54.6 316.7 49.5 310.7 49.5 310.7 54.7Z" fill="#58595B"/><path d="M322.8 54.7 321.3 54.7 321.3 43.7 323.1 43.7 323.1 51.8 329.4 43.7 331 43.7 331 54.7 329.2 54.7 329.2 46.6 322.8 54.7Z" fill="#58595B"/><path d="M335 54.7 332.8 54.7 336.5 49.9C335.7 49.7 335.1 49.4 334.6 48.8 334.1 48.3 333.9 47.6 333.9 46.9 333.9 46 334.2 45.2 334.9 44.6 335.6 44 336.5 43.8 337.7 43.8L342.9 43.8 342.9 54.8 341.1 54.8 341.1 50 338.4 50 335 54.7ZM337.8 48.5 341.2 48.5 341.2 45.2 337.8 45.2C337.2 45.2 336.6 45.4 336.3 45.6 335.9 45.9 335.8 46.3 335.8 46.8 335.8 47.3 336 47.7 336.3 48 336.7 48.3 337.2 48.5 337.8 48.5Z" fill="#58595B"/><path d="M106.4 73.8 104.6 73.8 104.6 62.8 109.6 62.8C110.8 62.8 111.8 63.1 112.4 63.7 113.1 64.3 113.5 65.1 113.5 66 113.5 66.9 113.1 67.7 112.4 68.4 111.7 69 110.8 69.3 109.6 69.3L106.4 69.3 106.4 73.8ZM106.4 64.3 106.4 67.6 109.4 67.6C110.1 67.6 110.6 67.4 111 67.2 111.4 66.9 111.6 66.5 111.6 66 111.6 65.5 111.4 65.1 111 64.8 110.6 64.5 110.1 64.4 109.4 64.4L106.4 64.3 106.4 64.3Z" fill="#58595B"/><path d="M125.1 72.3C124 73.4 122.6 73.9 120.9 73.9 119.2 73.9 117.8 73.4 116.7 72.3 115.6 71.2 115.1 69.8 115.1 68.2 115.1 66.6 115.6 65.2 116.7 64.2 117.8 63.1 119.2 62.5 120.9 62.5 122.6 62.5 124 63.1 125.1 64.2 126.2 65.3 126.8 66.7 126.8 68.2 126.8 69.8 126.2 71.2 125.1 72.3ZM118.1 71.1C118.9 71.9 119.8 72.3 120.9 72.3 122 72.3 123 71.9 123.7 71.1 124.5 70.3 124.9 69.3 124.9 68.2 124.9 67.1 124.5 66 123.7 65.3 122.9 64.5 122 64.1 120.9 64.1 119.8 64.1 118.8 64.5 118.1 65.3 117.3 66.1 116.9 67 116.9 68.2 116.9 69.4 117.3 70.4 118.1 71.1Z" fill="#58595B"/><path d="M134.8 74C133.1 74 131.6 73.5 130.5 72.4 129.3 71.3 128.8 69.9 128.8 68.3 128.8 66.6 129.4 65.3 130.5 64.2 131.7 63.1 133.1 62.6 134.8 62.6 136 62.6 137 62.9 137.9 63.3L137.9 65C137 64.4 136 64.1 134.8 64.1 133.6 64.1 132.6 64.5 131.8 65.3 131 66.1 130.6 67 130.6 68.2 130.6 69.4 131 70.4 131.8 71.1 132.6 71.9 133.6 72.3 134.9 72.3 136.2 72.3 137.3 72 138.2 71.3L138.2 73C137.2 73.7 136.1 74 134.8 74Z" fill="#58595B"/><path d="M145.7 74C144 74 142.5 73.5 141.4 72.4 140.2 71.3 139.7 69.9 139.7 68.3 139.7 66.6 140.3 65.3 141.4 64.2 142.6 63.1 144 62.6 145.7 62.6 146.9 62.6 147.9 62.9 148.8 63.3L148.8 65C147.9 64.4 146.9 64.1 145.7 64.1 144.5 64.1 143.5 64.5 142.7 65.3 141.9 66.1 141.5 67 141.5 68.2 141.5 69.4 141.9 70.4 142.7 71.1 143.5 71.9 144.5 72.3 145.8 72.3 147.1 72.3 148.2 72 149.1 71.3L149.1 73C148 73.7 146.9 74 145.7 74Z" fill="#58595B"/><path d="M152.7 73.8 151.2 73.8 151.2 62.8 153 62.8 153 70.9 159.3 62.8 160.9 62.8 160.9 73.8 159.1 73.8 159.1 65.7 152.7 73.8Z" fill="#58595B"/><path d="M165.2 73.8 163.7 73.8 163.7 62.8 165.5 62.8 165.5 70.9 171.8 62.8 173.4 62.8 173.4 73.8 171.6 73.8 171.6 65.7 165.2 73.8ZM168.5 62C167.7 62 166.9 61.7 166.4 61.3 165.9 60.8 165.6 60.2 165.6 59.4L167.1 59.4C167.1 59.8 167.2 60.1 167.5 60.3 167.8 60.6 168.1 60.7 168.5 60.7 168.9 60.7 169.3 60.6 169.5 60.3 169.8 60 169.9 59.7 169.9 59.4L171.4 59.4C171.4 60.2 171.1 60.8 170.6 61.3 170.1 61.8 169.4 62 168.5 62Z" fill="#58595B"/><path d="M181.7 74C180 74 178.5 73.5 177.4 72.4 176.2 71.3 175.7 69.9 175.7 68.3 175.7 66.6 176.3 65.3 177.4 64.2 178.6 63.1 180 62.6 181.7 62.6 182.9 62.6 183.9 62.9 184.8 63.3L184.8 65C183.9 64.4 182.9 64.1 181.7 64.1 180.5 64.1 179.5 64.5 178.7 65.3 177.9 66.1 177.5 67 177.5 68.2 177.5 69.4 177.9 70.4 178.7 71.1 179.5 71.9 180.5 72.3 181.8 72.3 183.1 72.3 184.2 72 185.1 71.3L185.1 73C184.1 73.7 183 74 181.7 74Z" fill="#58595B"/><path d="M189.1 73.8 187.3 73.8 187.3 62.8 189.1 62.8 189.1 67.3 193.8 62.8 196.1 62.8 190.8 67.8 197 73.8 194.5 73.8 189.1 68.5 189.1 73.8Z" fill="#58595B"/><path d="M207.1 72.3C206 73.4 204.6 73.9 202.9 73.9 201.2 73.9 199.8 73.4 198.7 72.3 197.6 71.2 197.1 69.8 197.1 68.2 197.1 66.6 197.6 65.2 198.7 64.2 199.8 63.1 201.2 62.5 202.9 62.5 204.6 62.5 206 63.1 207.1 64.2 208.2 65.3 208.8 66.7 208.8 68.2 208.7 69.8 208.2 71.2 207.1 72.3ZM200 71.1C200.8 71.9 201.7 72.3 202.8 72.3 203.9 72.3 204.9 71.9 205.6 71.1 206.4 70.3 206.8 69.3 206.8 68.2 206.8 67.1 206.4 66 205.6 65.3 204.8 64.5 203.9 64.1 202.8 64.1 201.7 64.1 200.7 64.5 200 65.3 199.2 66.1 198.8 67 198.8 68.2 198.9 69.4 199.2 70.4 200 71.1Z" fill="#58595B"/><path d="M212.6 73.8 211 73.8 211 62.8 212.8 62.8 212.8 70.9 219.1 62.8 220.7 62.8 220.7 73.8 218.9 73.8 218.9 65.7 212.6 73.8ZM215.8 62C215 62 214.2 61.7 213.7 61.3 213.2 60.8 212.9 60.2 212.9 59.4L214.4 59.4C214.4 59.8 214.5 60.1 214.8 60.3 215.1 60.6 215.4 60.7 215.8 60.7 216.2 60.7 216.6 60.6 216.8 60.3 217.1 60 217.2 59.7 217.2 59.4L218.7 59.4C218.7 60.2 218.4 60.8 217.9 61.3 217.3 61.8 216.7 62 215.8 62Z" fill="#58595B"/><path d="M234.8 74.1 233 74.1 233 72.9C231.2 72.8 229.8 72.4 228.8 71.5 227.9 70.6 227.4 69.5 227.4 68.2 227.4 67.6 227.5 67 227.8 66.5 228 65.9 228.4 65.4 228.8 65 229.2 64.5 229.9 64.2 230.6 63.9 231.3 63.6 232.2 63.5 233.1 63.4L233.1 62.3 234.9 62.3 234.9 63.4C235.8 63.4 236.6 63.6 237.4 63.8 238.1 64.1 238.7 64.4 239.2 64.9 239.7 65.4 240 65.8 240.2 66.4 240.4 67 240.6 67.6 240.6 68.1 240.6 68.6 240.5 69.3 240.2 69.8 239.9 70.3 239.6 70.9 239.2 71.3 238.7 71.8 238.1 72.1 237.4 72.4 236.7 72.7 235.8 72.8 234.9 72.8L234.8 74.1 234.8 74.1ZM233 71.4 233 64.9C231.8 64.9 230.8 65.2 230.2 65.8 229.6 66.4 229.3 67.2 229.3 68.1 229.3 69 229.6 69.8 230.2 70.4 230.8 71 231.8 71.3 233 71.4ZM234.8 64.9 234.8 71.4C236.1 71.4 237 71.1 237.6 70.5 238.2 69.9 238.5 69.1 238.5 68.2 238.5 67.3 238.2 66.5 237.6 65.9 237 65.2 236 64.9 234.8 64.9Z" fill="#58595B"/><path d="M250.9 73.8 242.5 73.8 242.5 62.8 250.7 62.8 250.7 64.4 244.3 64.4 244.3 67.2 249.5 67.2 249.5 68.8 244.3 68.8 244.3 72.3 250.9 72.3 250.9 73.8 250.9 73.8Z" fill="#58595B"/><path d="M254.1 76.1 252.4 76.1 252.4 72.2 253.5 72.2C254.1 71.3 254.6 70.3 254.8 69.1 255.1 67.9 255.2 66.3 255.2 64.3L255.2 62.8 262.8 62.8 262.8 72.3 264.4 72.3 264.4 76.2 262.7 76.2 262.7 73.8 254 73.8 254.1 76.1 254.1 76.1ZM255.4 72.1 261 72.1 261 64.2 256.9 64.2C256.9 66 256.8 67.6 256.5 68.8 256.4 70.2 256 71.3 255.4 72.1Z" fill="#58595B"/><path d="M274.7 73.8 266.3 73.8 266.3 62.8 274.5 62.8 274.5 64.4 268.1 64.4 268.1 67.2 273.3 67.2 273.3 68.8 268.1 68.8 268.1 72.3 274.7 72.3 274.7 73.8 274.7 73.8Z" fill="#58595B"/><path d="M278.5 73.8 276.7 73.8 276.7 62.8 281.7 62.8C282.9 62.8 283.9 63.1 284.5 63.7 285.2 64.3 285.6 65.1 285.6 66 285.6 66.9 285.2 67.7 284.5 68.4 283.8 69 282.9 69.3 281.7 69.3L278.5 69.3 278.5 73.8ZM278.5 64.3 278.5 67.6 281.5 67.6C282.2 67.6 282.7 67.4 283.1 67.2 283.5 66.9 283.7 66.5 283.7 66 283.7 65.5 283.5 65.1 283.1 64.8 282.7 64.5 282.2 64.4 281.5 64.4L278.5 64.3 278.5 64.3Z" fill="#58595B"/><path d="M287.2 73.8 285.3 73.8 290.3 62.7 292 62.7 297 73.8 295.1 73.8 293.8 71.1 288.4 71.1 287.2 73.8ZM291.2 64.8 289.1 69.4 293.3 69.4 291.2 64.8Z" fill="#58595B"/><path d="M309.8 76.1 308.1 76.1 308.1 73.7 298.9 73.7 298.9 62.7 300.7 62.7 300.7 72.2 306.3 72.2 306.3 62.7 308.1 62.7 308.1 72.2 309.7 72.2 309.7 76.1 309.8 76.1Z" fill="#58595B"/><path d="M313.2 73.8 311.7 73.8 311.7 62.8 313.5 62.8 313.5 70.9 319.8 62.8 321.4 62.8 321.4 73.8 319.6 73.8 319.6 65.7 313.2 73.8Z" fill="#58595B"/><path d="M325.7 73.8 324.2 73.8 324.2 62.8 326 62.8 326 70.9 332.3 62.8 333.9 62.8 333.9 73.8 332.1 73.8 332.1 65.7 325.7 73.8Z" fill="#58595B"/></g><g><path d="M67.5 71.6C67.2 71.6 67 71.8 67 72.1 67 72.4 67.2 72.6 67.5 72.6 67.8 72.6 68 72.4 68 72.1 68 71.9 67.8 71.6 67.5 71.6Z" fill="#13377D"/><path d="M69.2 76.5 69.2 76.5C69.2 76.8 69.4 77 69.7 77 70 77 70.2 76.8 70.2 76.5 70.2 76.2 70 76 69.7 76 69.4 76 69.2 76.2 69.2 76.5Z" fill="#13377D"/><path d="M67.5 76 67.5 76C67.2 76 67 76.2 67 76.5 67 76.8 67.2 77 67.5 77 67.8 77 68 76.8 68 76.5 68 76.2 67.8 76 67.5 76Z" fill="#13377D"/><path d="M71.4 76.5 71.4 76.5C71.4 76.8 71.6 77 71.9 77 72.2 77 72.4 76.8 72.4 76.5 72.4 76.2 72.2 76 71.9 76 71.6 76 71.4 76.2 71.4 76.5Z" fill="#13377D"/><path d="M66.8 66.7 66.9 68 65.8 67.9 65.8 69.3 66.9 69.1 66.8 70.4 68.2 70.4 68.1 69.1 69.2 69.3 69.2 67.9 68.1 68 68.2 66.7Z" fill="#13377D"/><path d="M68.4 71.2 68.4 75.7 72.7 75.7C72.4 73.4 70.6 71.6 68.4 71.2Z" fill="#13377D"/><path d="M67.5 73.8C67.2 73.8 67 74 67 74.3 67 74.6 67.2 74.8 67.5 74.8 67.8 74.8 68 74.6 68 74.3 68 74 67.8 73.8 67.5 73.8Z" fill="#13377D"/><path d="M69.3 79.5C69.2 79.5 68.8 80.6 69.2 81.4 69.4 81.8 69.8 82 70.2 81.9 70.6 81.8 70.7 81.4 70.7 81.2 70.6 80.3 69.9 79.5 69.3 79.5Z" fill="#13377D"/><path d="M65.7 79.5C65.1 79.5 64.4 80.3 64.4 81.2 64.4 81.5 64.5 81.8 64.9 81.9 65.3 82 65.7 81.8 65.9 81.4 66.1 80.6 65.8 79.5 65.7 79.5Z" fill="#13377D"/><path d="M67.5 78.9C67.1 78.9 65.9 81.2 66.8 82.3 67 82.5 67.2 82.6 67.5 82.6 67.8 82.6 68.1 82.5 68.2 82.3 69 81.2 67.9 78.9 67.5 78.9Z" fill="#13377D"/><path d="M62.2 76.5 62.2 76.5C62.2 76 62.3 75.6 62.3 75.6L66.6 75.6 66.6 75.2 66.6 72 66.6 72 66.6 71.1C64.5 71.5 62.8 73.1 62.3 75.2 62.2 75.4 61.8 75.5 61.5 75.4 59.9 75.2 56.7 74.6 56.7 73.9 56.7 72.9 57.4 72.5 58 72.5 58.9 72.5 59.9 73 60.7 71.8 57.8 71.9 60 67.7 57.6 66.9 57.7 68 57.6 69.9 57.2 70.9 57.2 70.9 56.3 70 55.4 69.6 55.5 70.4 55.3 72 55 72.8 55 72.8 54 71.8 52.9 71.5 53.9 72.9 53.9 75 53.6 76.2 53.5 76.6 53.8 77 54.5 77 55.7 76.9 59.7 77.1 61.4 77.8 61.9 78 62.4 78.3 62.6 78.7 62.8 79.2 63.2 80 63.8 80.4 64.1 79.5 65.1 78.5 65.8 78.6 66 78.6 66.2 79 66.3 79.3 66.4 79 66.9 78.1 67.4 78.1 67.9 78.1 68.4 78.8 68.6 79.4 68.7 79 68.9 78.6 69.1 78.6 69.8 78.6 70.7 79.2 71 80.3 71.3 80 72.5 78.4 72.6 77.3L62.2 77.3C62.2 77.4 62.2 77 62.2 76.5Z" fill="#13377D"/><path d="M64.8 76.5 64.8 76.5C64.8 76.8 65 77 65.3 77 65.6 77 65.8 76.8 65.8 76.5 65.8 76.2 65.6 76 65.3 76 65 76 64.8 76.2 64.8 76.5Z" fill="#13377D"/><path d="M62.7 76.5 62.7 76.5C62.7 76.8 62.9 77 63.2 77 63.5 77 63.7 76.8 63.7 76.5 63.7 76.2 63.5 76 63.2 76 62.9 76 62.7 76.2 62.7 76.5Z" fill="#13377D"/><path d="M21.3 78.7C21.1 78.9 20.7 80 20.9 80.7 21 81 21.1 81.1 21.4 81.1 21.7 81.1 21.8 80.9 21.9 80.6 22 79.9 21.5 78.8 21.3 78.7Z" fill="#13377D"/><path d="M25 81.8 25 81.8C24.8 82.1 24.5 82.2 24.4 82.3 24.5 82.4 24.8 82.6 25.1 82.6 25.3 82.6 25.5 82.5 25.6 82.4 25.9 81.8 25.6 81.3 25.5 81.1 25.4 81.3 25.3 81.6 25 81.8Z" fill="#13377D"/><path d="M23.6 80.4 23.6 80.4C24 80 24.1 79.7 24 79.5 23.9 79.2 23 78.3 22 77.2 22 77.4 21.9 77.6 21.9 77.8 22.6 78.8 22.9 79.8 22.7 80.7 22.8 80.8 22.8 80.8 22.9 80.8 23.1 81 23.4 80.7 23.6 80.4Z" fill="#13377D"/><path d="M25 80.5 25 80.5C25 80.3 25 80.2 24.9 80.1 24.9 80.1 24.8 80.1 24.8 80.1 24.7 80.1 24.6 80.3 24.5 80.4 24.4 80.5 24.3 80.7 24.1 80.9 23.9 81.1 23.8 81.2 23.6 81.4 23.4 81.5 23.3 81.7 23.3 81.8 23.3 81.8 23.3 81.8 23.3 81.9 23.4 82 23.4 82 23.5 82 23.6 82 23.9 81.9 24.4 81.4 24.9 80.9 25 80.7 25 80.5Z" fill="#13377D"/><path d="M18.4 75.2 18.4 75.2C18.4 75.2 18.3 75.3 18.2 75.5 18.4 75.5 18.7 75.5 18.9 75.6 18.9 75.4 18.9 75.1 18.9 74.9 18.7 74.9 18.5 75.1 18.4 75.2Z" fill="#13377D"/><path d="M21.1 75.5 21.1 75.5C21.1 75.5 23.2 77.3 23.9 78 24.1 78.2 24.3 78.2 24.5 78.1 24.6 78 24.8 78 25 77.9 27.1 77.2 30.5 77.1 31.7 77.1 32.5 77.1 32.7 76.7 32.6 76.3 32.4 75.1 32.3 73 33.3 71.6 32.2 72 31.2 72.9 31.2 72.9 30.8 72.2 30.7 70.5 30.8 69.7 29.8 70 29 71 29 71 28.6 70 28.5 68.1 28.6 67 26.2 67.8 28.4 72.1 25.5 71.9 26.3 73.1 27.3 72.6 28.2 72.6 28.8 72.6 29.6 73 29.5 74 29.4 74.7 25.5 75.5 23.9 75.5 22.8 75.5 22 75.2 21.5 74.4 21.2 74 21 73.9 20.7 73.9 20.3 74 19.9 74.3 19.9 75.3 19.9 75.9 20.2 77.3 20.9 77.3 21.3 77.4 21.3 76.2 21.1 75.5Z" fill="#13377D"/><path d="M17.1 74.9 17.1 74.9C17.2 74.9 17.3 74.9 17.4 74.9 17.1 75.3 17.1 75.6 17.2 75.7 17.4 75.9 17.5 75.5 18 75 18.5 74.5 18.8 74.3 18.7 74.1 18.6 74 18.3 74 17.9 74.3 17.9 74.2 18 74.1 17.9 74 17.7 73.5 17 72.9 16.5 72.9 16.4 72.9 16.4 72.9 16.3 72.9 16.5 72.6 16.4 72.4 16.3 72.2 16.2 72.1 16.1 72.2 15.9 72.4 15.9 72.3 15.9 72.1 15.8 71.9 15.2 70.9 11.8 67.7 11 67.4 10.5 67.2 10.4 67.5 10.4 67.5 10.4 67.5 10.1 67.7 10.3 68.1 10.6 68.9 13.9 72.2 14.8 72.8 15 72.9 15.2 73 15.3 72.9 15.1 73.1 15 73.1 15.2 73.3 15.3 73.4 15.5 73.5 15.8 73.3 15.8 73.4 15.8 73.4 15.8 73.5 16 73.9 16.6 74.7 17.1 74.9Z" fill="#13377D"/><path d="M19.5 77.3C19.5 77 18.9 76.4 18.1 76.4 17 76.4 16.5 77.1 16.5 77.5 16.5 78.2 17.2 78.3 17.4 78.3 18.1 78.3 19.4 77.5 19.5 77.3Z" fill="#13377D"/><path d="M18.5 79 18.5 79C18.2 79.4 18.1 79.8 18.2 80.1 18.3 80.5 18.7 80.7 19.1 80.7 19.5 80.7 19.9 80.5 20.1 80.2 20.5 79.5 20.5 78 20.4 77.9 20 77.9 19 78.3 18.5 79Z" fill="#13377D"/><path d="M8.7 63.4 8.7 63.4C8.4 63.1 7.7 63.6 7.3 63.3 7.5 62.3 8.2 63.3 8.8 62.7 9.1 62.4 8.9 62 8.8 61.9 8.5 62.2 8.1 62.1 8 61.9 8.7 60.1 7.3 58.2 5.9 58.4 6.2 58.8 6.3 60.1 6.1 60.4 6.6 60.8 6.3 61.7 5.7 61.4 5.3 61.2 4.6 60.2 5.4 59.6 5.4 59.3 4.9 59.3 4.5 59.9 4.8 58.8 2.7 59.1 2.3 59.4 2.1 59.9 1.8 62 2.9 61.6 2.3 62.1 2.4 62.6 2.6 62.6 3.3 61.8 4.2 62.4 4.4 62.8 4.7 63.4 3.8 63.8 3.4 63.3 3.1 63.4 1.8 63.4 1.5 63.1 1.3 64.5 3.3 66 5 65.2 5.2 65.2 5.3 65.7 5 66 5.1 66.2 5.6 66.3 5.8 66 6.5 65.3 5.5 64.6 6.4 64.4 6.6 64.8 6.2 65.5 6.5 65.8 7 66.3 7.6 65.3 8.3 65.3 8.3 64.5 9.2 63.9 8.7 63.4ZM3.5 61.1 3.5 61.1C3.5 61.1 3.2 60.9 3.6 60.4 4 60 4.2 60.3 4.2 60.3 4.2 60.3 4.6 61.1 4.7 61.5 4.3 61.5 3.5 61.1 3.5 61.1ZM6.7 63.6 6.7 63.6C6.5 63.6 6 64.1 5.8 63.8L4.7 62.7 5.3 62.1 5.9 61.5 7 62.6C7.1 62.9 6.7 63.4 6.7 63.6Z" fill="#13377D"/><path d="M9 65.4 9 65.4C8.9 65.4 8.8 65.4 8.7 65.5 8.6 65.6 8.6 65.8 8.6 66 8.6 66.2 8.8 66.4 9 66.6 9.1 66.9 9.4 67 9.6 67 9.7 67 9.8 67 9.9 66.9 10.1 66.7 10 66.1 9.7 65.8 9.5 65.6 9.2 65.4 9 65.4Z" fill="#13377D"/><path d="M5.8 62.1 5.5 62.4 5.5 62.4 5.2 62.7C5.2 62.7 5.8 63.5 6.3 63.2 6.6 62.7 5.8 62.1 5.8 62.1Z" fill="#13377D"/><path d="M64.2 59.1C64.2 59.3 63.4 59.7 62.8 58.6 62.2 58.5 61.6 58.3 61.2 58.1 61.9 59.5 62.5 60.7 63.5 61.3 65 62.2 67.3 62 68 61 66.7 60.3 65.2 58.5 64.4 56.8 64.2 57.2 63.9 57.9 63.7 58.4 63.8 58.6 64 58.9 64.2 59.1Z" fill="#13377D"/><path d="M64.3 56.7 64.3 56.7 64.3 56.7Z" fill="#13377D"/><path d="M78.1 37.2 78.1 37.2C79.7 36.5 82 34.9 83.1 33.9 83.2 34.1 83.6 35 82.4 36 81.5 36.7 79.7 37.6 78.4 38.1 77.8 39 76.6 40 75 41.1 78.2 40.6 82 39.3 83.9 37.5 87.4 34 85.6 29.8 85.1 28.8 82.8 31.7 78.4 34.7 74.3 36.3 75.7 36.5 77.1 36.8 78.1 37.2Z" fill="#13377D"/><path d="M75.5 30.8C77.6 29.1 79.8 25.7 80.2 24.5 80.7 24.8 80.9 25.8 80.3 26.9 79.2 28.8 77.2 30.5 75.5 31.9 75.4 33.1 74.9 34.6 74.3 35.7 76.8 34 79.7 31.5 81 29.8 82.7 27.6 83.4 25.4 83.1 23.2 83.2 20.7 81.4 18.2 80.7 17.6 80.2 20.3 77.5 24.9 75.1 27.5 75.3 28.4 75.5 29.7 75.5 30.8Z" fill="#13377D"/><path d="M73.9 46.6 73.9 46.6C74.4 47.2 74.9 47.9 75.3 48.5 77.2 48.9 79.5 48.8 79.5 48.8 79.5 48.8 79.4 49.8 78.1 49.9 77.5 49.9 75.7 49.6 75 49.4 74.7 49.5 73.3 49.9 71.9 50.1 73.9 50.8 76.8 51.5 78.6 51.5 78.8 51.5 78.9 51.5 79.1 51.5 82 51.2 83.5 48.5 83.6 47 82.7 47.2 81.2 47.3 79.7 47.3 78.3 47.3 75.8 47.2 73.9 46.6Z" fill="#13377D"/><path d="M86 39C83.4 40.4 78.8 41.8 75.1 41.8 76 42.4 76.9 43 77.5 43.6 79 43.5 81.1 43 82.3 42.6 82.3 42.8 82.3 43.8 80.9 44.2 79.9 44.5 78.5 44.5 77.4 44.5 76.5 45.1 75.2 45.6 74.1 46 75.1 46.1 76.4 46.2 77.5 46.2 79.4 46.2 81.2 46 82.3 45.6 83.3 45.3 86.6 43.9 86 39Z" fill="#13377D"/><path d="M72 52.8 72 52.8C73.1 53.3 74.3 53.7 75.3 53.8 75.3 53.8 75.1 54.8 73.6 54.6 72.7 54.5 71.7 53.8 71.5 53.7 70.8 53.8 69.4 53.8 68.9 53.7 70.6 54.9 73.2 56.3 75.4 56.5 75.5 56.5 75.6 56.5 75.7 56.5 78 56.5 79.8 54.2 80.3 53.1 78 53.1 74 52.1 71.6 50.8 71.7 51.2 71.9 52 72 52.8Z" fill="#13377D"/><path d="M68 55.9C68.6 56.6 69.6 57 69.6 57 69.6 57 69.3 57.5 68.7 57.5 68.5 57.5 68.3 57.4 68.1 57.3 67.7 57.1 67.1 56.4 67.1 56.4 66.3 56.3 65.6 56.2 64.9 56 66.1 57.5 68.1 59.4 70.3 59.9 70.6 60 70.9 60 71.3 60 73.2 60 74.8 58.6 75.2 57.7 73 57.4 69.8 55.7 68.2 54.1 68.2 54.7 68.1 55.4 68 55.9Z" fill="#13377D"/><path d="M53.7 80.4 53.7 80.4C54.8 80.4 55.5 80 56 78.9 54.5 79.6 52.9 79.2 49.9 78.3 49.9 78.3 48.8 78.8 48.1 78.9 49.9 79.4 52.5 80.3 52.9 81.3 53.1 82.1 52.6 82.3 52.6 82.3 51.6 81.1 50.4 80.4 47.8 79.6 47.8 80.1 47.7 80.4 47.7 80.4 47.7 80.4 47.2 80.5 46 80.3 47 81.1 49.4 83.2 49.7 85.4 49.9 86.9 48.8 87 48.8 87 48.7 84.7 47.7 83.3 45.5 81 45.5 81 45.1 81.5 44.7 81.8 44.7 81.8 43.9 81.7 43.3 81.2 43.6 84.2 43.7 91.4 43.5 92.5 43.4 93.3 42.9 93.7 42.9 93.7L42.9 93.7 42.9 93.7C42.9 93.7 42.4 93.4 42.3 92.5 42.1 91.3 42.3 84.1 42.5 81.2 41.8 81.6 41.1 81.8 41.1 81.8 40.6 81.5 40.3 81 40.3 81 38.2 83.3 37.2 84.8 37 87 37 87 36 86.9 36.1 85.4 36.4 83.2 38.8 81.1 39.8 80.3 38.7 80.5 38.1 80.4 38.1 80.4 38.1 80.4 38 80.1 38 79.6 35.4 80.4 34.3 81.1 33.2 82.3 33.2 82.3 32.7 82.2 32.9 81.3 33.3 80.3 35.9 79.5 37.7 78.9 37.1 78.8 35.9 78.3 35.9 78.3 33 79.2 31.3 79.6 29.8 78.9 30.2 80 31 80.4 32.1 80.4L32.1 80.4C30.7 80.9 29.4 82.3 29 83.7 30 87.4 33.2 88.5 33.2 88.5 32.4 86.7 32.7 83.2 37.5 80.8 34.6 83.7 33.4 86.4 34.2 88.9 34.9 91.2 37.3 92.1 39 92.2 37.8 88.4 38.3 84.9 40.9 82.2 39.8 85.2 38.2 94.5 42.7 96 42.7 96 42.7 96 42.7 96 42.7 96 42.7 96 42.7 96 47.2 94.5 45.6 85.2 44.5 82.2 47.1 85 47.6 88.4 46.4 92.2 48.2 92.2 50.5 91.2 51.2 88.9 52 86.4 50.9 83.7 47.9 80.8 52.7 83.2 53 86.8 52.2 88.5 52.2 88.5 55.4 87.4 56.4 83.7 56.4 82.3 55 81 53.7 80.4Z" fill="#13377D"/><path d="M22.7 61.3C23.7 60.7 24.3 59.5 25 58.1 24.6 58.3 24 58.5 23.4 58.6 22.8 59.7 22 59.3 22 59.1 22.2 58.9 22.4 58.6 22.5 58.4 22.3 57.9 22 57.2 21.8 56.8 21 58.6 19.4 60.3 18.2 61 18.9 62 21.2 62.2 22.7 61.3Z" fill="#13377D"/><path d="M21.8 56.7 21.8 56.7 21.8 56.7Z" fill="#13377D"/><path d="M11.1 41.1C9.4 40 8.3 39 7.7 38.1 6.3 37.6 4.5 36.7 3.7 36 2.5 35 2.9 34.1 3 33.9 4 35 6.3 36.5 8 37.2L8 37.2C9 36.8 10.4 36.5 11.8 36.3 7.7 34.8 3.3 31.7 1 28.9 0.5 29.8-1.4 34.1 2.2 37.6 4 39.3 7.9 40.6 11.1 41.1Z" fill="#13377D"/><path d="M11.8 35.6C11.2 34.5 10.7 33.1 10.6 31.8 8.9 30.5 7 28.8 5.8 26.8 5.2 25.7 5.4 24.7 5.9 24.4 6.3 25.6 8.5 29 10.6 30.7 10.6 29.6 10.8 28.3 11.1 27.4 8.7 24.8 5.9 20.2 5.5 17.5 4.8 18.1 3 20.6 3.1 23.1 2.8 25.3 3.5 27.5 5.2 29.7 6.4 31.4 9.3 34 11.8 35.6Z" fill="#13377D"/><path d="M10.8 48.5C11.1 47.9 11.7 47.2 12.2 46.6L12.2 46.6C10.3 47.1 7.8 47.2 6.5 47.2 4.9 47.2 3.4 47.1 2.6 46.9 2.7 48.5 4.2 51.2 7.1 51.4 7.3 51.4 7.4 51.4 7.6 51.4 9.4 51.4 12.3 50.7 14.3 50 12.9 49.8 11.5 49.5 11.2 49.3 10.4 49.7 8.6 50 8 49.9 6.7 49.8 6.6 48.8 6.6 48.8 6.6 48.8 8.9 48.9 10.8 48.5Z" fill="#13377D"/><path d="M3.8 45.7C4.9 46.1 6.6 46.3 8.6 46.3 9.8 46.3 11 46.2 12 46.1 10.9 45.7 9.6 45.2 8.7 44.6 7.6 44.6 6.1 44.5 5.2 44.3 3.8 43.9 3.8 42.9 3.8 42.7 5 43.2 7.1 43.7 8.6 43.7 9.2 43.2 10 42.5 11 41.9 7.4 41.9 2.7 40.5 0.1 39.1-0.5 43.9 2.8 45.3 3.8 45.7Z" fill="#13377D"/><path d="M10.5 56.4C10.6 56.4 10.7 56.4 10.8 56.4 13 56.2 15.6 54.8 17.3 53.6 16.8 53.7 15.3 53.7 14.7 53.6 14.5 53.8 13.4 54.4 12.6 54.5 11 54.7 10.9 53.7 10.9 53.7 11.9 53.6 13.1 53.2 14.2 52.7L14.2 52.7C14.3 51.9 14.5 51.1 14.7 50.6 12.2 52 8.2 53 5.9 53 6.4 54.1 8.2 56.4 10.5 56.4Z" fill="#13377D"/><path d="M14.8 60C15.1 60 15.5 60 15.8 59.9 17.9 59.4 20 57.5 21.2 56 20.5 56.2 19.8 56.4 19 56.4 19 56.4 18.5 57 18 57.3 17.8 57.4 17.6 57.5 17.4 57.5 16.8 57.5 16.5 57 16.5 57 16.5 57 17.5 56.5 18.1 55.9 18 55.4 17.9 54.7 17.9 54.1 16.2 55.8 13.1 57.4 10.9 57.7 11.3 58.6 12.8 60 14.8 60Z" fill="#13377D"/><path d="M42.2 5.3 42.2 5.3C42.2 5.8 42.6 6.1 43 6.1 43.4 6.1 43.8 5.7 43.8 5.3 43.8 4.8 43.4 4.5 43 4.5 42.6 4.4 42.2 4.8 42.2 5.3Z" fill="#13377D"/><path d="M42.5 3.5 42.5 3.5 43.6 3.5 43.5 2.1 44.7 2.3 44.7 1.2 43.5 1.3 43.6 0 42.5 0 42.6 1.3 41.4 1.2 41.4 2.3 42.6 2.1Z" fill="#13377D"/><path d="M38.6 16.7 38.6 16.7C38.7 16.7 38.9 16.8 39 16.8L47 16.8C47.2 16.8 47.3 16.8 47.4 16.7 47.7 16.6 47.8 16.4 47.9 16.1L38.1 16.1C38.2 16.5 38.4 16.6 38.6 16.7Z" fill="#13377D"/><path d="M47.4 15.5C47.5 15.5 47.5 15.4 47.5 15.4L47.5 14.8C47.5 14.7 47.4 14.7 47.4 14.7L38.7 14.7C38.6 14.7 38.6 14.8 38.6 14.8L38.6 15.4C38.6 15.5 38.7 15.5 38.7 15.5L47.4 15.5Z" fill="#13377D"/><path d="M48.3 14C48.5 13.7 49.6 11.6 49.6 9.4 49.6 7.4 47.1 6.3 45.7 6.3 45.5 9.1 44.4 13.5 43 13.5 41.7 13.5 40.5 9.1 40.3 6.3 38.8 6.3 36.4 7.4 36.4 9.4 36.4 11.6 37.5 13.8 37.7 14L48.3 14Z" fill="#13377D"/><path d="M43 12.1C43.7 12.1 44.5 10 44.8 7.9 44.8 7.5 44.1 6.9 43 6.8 41.9 6.8 41.2 7.4 41.2 7.9 41.5 9.8 42.4 12.1 43 12.1Z" fill="#13377D"/><path d="M59.6 21.2 59.6 21.2 59.6 21.2Z" fill="#13377D"/><path d="M55.7 44.9C55.7 44.6 55.5 44.4 55.2 44.4L30.9 44.4C30.6 44.4 30.4 44.6 30.4 44.9L30.4 61.6 30.4 61.7 30.4 61.8C30.4 61.8 30.4 61.8 30.4 61.8 30.4 61.8 30.4 62.7 30.8 63.7 31.3 64.9 33.4 66.9 36 68.3 39.7 70.2 41.9 71.7 43 72.6 44.1 71.7 46.3 70.2 50 68.3 52.7 66.9 54.7 64.9 55.2 63.7 55.7 62.6 55.6 61.8 55.6 61.8L55.7 44.9ZM47.5 51 47.5 51.1C47.8 52.3 48.1 53.6 48.2 54.8 49.2 55.6 50.1 56.4 50.9 57.2 52.4 55.5 53.2 53.9 53.2 52.6 53.2 52.6 53.2 52.6 53.2 52.6 52.5 52.6 51.9 52 51.9 51.3 51.9 51 52 50.8 52.1 50.6 51.4 50.3 50.6 50.2 49.9 50.2 49.3 50.2 48.7 50.3 48 50.4 48 50.4 47.9 50.4 47.9 50.4L47.7 50.5 47.8 50.4C47.9 50.2 47.9 50.1 48 49.9L48 49.9 48 49.9C50 49.5 51.6 49.7 52.6 50.3 52.8 50.2 53 50.1 53.2 50.1 53.9 50.1 54.5 50.7 54.5 51.4 54.5 51.9 54.2 52.3 53.8 52.5 53.8 53.9 53 55.7 51.3 57.7 51.4 57.8 51.5 57.9 51.6 58 51.7 58.1 51.7 58.1 51.8 58.2L51.8 58.3 51.8 58.3C51.7 58.4 51.6 58.5 51.5 58.6L51.5 58.6 51.4 58.6C51.4 58.6 51.4 58.6 51.3 58.6L51.3 58.6C51.2 58.5 51.2 58.5 51.2 58.4 51.1 58.3 51.1 58.2 51 58.1 50.8 58.3 50.6 58.5 50.4 58.7L50.2 59C49.9 59.2 49.6 59.3 49.4 59.2L49.3 59.2 49.4 59.1C49.9 58.7 50.3 58.2 50.7 57.9 50.1 57.2 49.3 56.5 48.5 55.8 48.6 56.5 48.6 57.2 48.6 57.9 48.6 58.5 48.6 59.2 48.5 59.9L48.5 59.9 48.5 59.9C48.4 60 48.2 60.1 48.1 60.2L48 60.3 48 60.2C48.1 59.4 48.1 58.6 48.1 57.9 48.1 57.7 48.1 57.4 48.1 57.2L48.1 57 48.1 57C48.1 56.5 48 55.1 47.9 54.2 47.9 54.2 47.9 54.2 47.9 54.2L47.9 54.2 47.9 54.2C47.8 53.4 47.6 52.6 47.4 51.8L47.4 51.7 47.4 51.7C47.4 51.7 47.4 51.7 47.4 51.7L47.4 51.7C47.5 51.6 47.6 51.5 47.7 51.4L47.5 51ZM39.3 49.2C40.3 46.8 41.7 45.5 43.1 45.5 44.5 45.5 45.9 46.8 46.9 49.2L46.9 49.3 46.8 49.3C46.7 49.3 46.6 49.4 46.4 49.5L46.3 49.5 46.3 49.4C45.4 47.3 44.2 46.1 43 46.1 41.8 46.1 40.6 47.3 39.7 49.4L39.7 49.5 39.6 49.5C39.5 49.3 39.3 49.3 39.3 49.2L39.3 49.2 39.3 49.2ZM38.9 49.8C39.2 50 40.1 50.5 41.1 50.2 42 49.9 43 49.9 43 49.9 43 49.9 44.1 49.9 44.9 50.2 45.9 50.5 46.8 50 47.1 49.8 47.2 49.8 47.2 49.8 47.2 49.9 47.1 50.3 46.8 51.3 45.3 51.7 43.9 52 43.2 53.6 43 54.3 43 54.4 42.9 54.4 42.8 54.3 42.6 53.6 41.9 52 40.5 51.7 39 51.4 38.7 50.3 38.6 49.9 38.8 49.8 38.9 49.8 38.9 49.8ZM41.3 53.8C41.5 53.8 41.8 53.7 42 53.6 42.1 53.8 42.2 54.1 42.3 54.3 42 54.5 41.7 54.6 41.3 54.6 40.2 54.6 39.4 53.7 39.4 52.7 39.4 52.4 39.5 52.2 39.6 52 39.8 52.1 40 52.2 40.3 52.3 40.2 52.4 40.2 52.6 40.2 52.7 40.1 53.3 40.7 53.8 41.3 53.8ZM40.8 52.6C40.8 52.5 40.8 52.5 40.8 52.4 41.1 52.5 41.4 52.8 41.6 53 41.5 53.1 41.4 53.1 41.3 53.1 41 53.1 40.8 52.9 40.8 52.6ZM41.3 55.2C41.7 55.2 42.2 55.1 42.6 54.8 42.7 54.9 42.9 55.3 43 55.3 43.2 55.3 43.3 54.9 43.4 54.8 43.8 55 44.3 55.2 44.7 55.2 45.4 55.2 46 54.9 46.5 54.5 46.5 54.5 46.5 54.5 46.5 54.6 46.7 55.4 46.8 56.4 46.7 56.8 46.7 57.2 46.5 57.6 46.4 58 46.2 58.5 46.1 58.9 46.1 58.9 46.1 58.9 46.1 59 46 59.2 45.9 59.6 45.6 60.3 45.2 61 44.4 60.5 43.6 60.3 42.6 60.3 41.7 60.3 40.9 60.5 40.2 60.9 39.9 60.2 39.6 59.6 39.5 59.3 39.4 59.1 39.4 59 39.4 59 39.4 59 39.2 58.6 39 58 38.9 57.7 38.8 57.3 38.8 56.9 38.8 56.6 38.7 55.6 39 54.7 39 54.6 39.1 54.5 39.1 54.4 39.8 54.8 40.6 55.2 41.3 55.2ZM44.8 53.8C45.5 53.8 46 53.3 46 52.6 46 52.4 46 52.3 45.9 52.2 46.1 52.1 46.4 52 46.6 51.9 46.7 52.1 46.8 52.4 46.8 52.6 46.8 53.7 45.9 54.5 44.9 54.5 44.5 54.5 44.2 54.4 43.9 54.2 44 54 44.1 53.8 44.2 53.5 44.3 53.7 44.6 53.8 44.8 53.8ZM44.5 53C44.7 52.7 45 52.5 45.3 52.4 45.3 52.5 45.3 52.5 45.3 52.6 45.3 52.9 45.1 53.1 44.8 53.1 44.7 53.1 44.6 53.1 44.5 53ZM32.9 50.2C33.2 50.2 33.4 50.3 33.6 50.4 34.3 50 35.1 49.8 36.2 49.8 36.8 49.8 37.4 49.9 38.1 50L38.2 50 38.2 50C38.2 50.1 38.3 50.3 38.4 50.5L38.5 50.6 38.3 50.5C38.2 50.5 38.2 50.5 38.1 50.5 37.5 50.4 36.9 50.3 36.3 50.3 35.6 50.3 34.7 50.4 34.1 50.8 34.2 51 34.3 51.2 34.3 51.5 34.3 52.2 33.7 52.8 33 52.8 33 54 33.8 55.6 35.3 57.4 36.1 56.6 37 55.7 38 55 38.1 53.8 38.4 52.5 38.7 51.3L38.7 51.2 38.8 51.3C38.9 51.4 39 51.5 39.1 51.6 39.1 51.6 39.1 51.6 39.2 51.7L39.2 51.7 39.2 51.8C39 52.6 38.8 53.3 38.7 54.1L38.7 54.2 38.7 54.2C38.6 54.8 38.5 55.6 38.5 56.4 38.5 57 38.4 57.5 38.4 57.9 38.4 58.5 38.4 59.1 38.5 59.9L38.5 60 38.4 60C38.2 59.9 38.1 59.9 38 59.9L37.9 59.9 37.9 59.8C37.9 59.3 37.8 58.6 37.8 57.9 37.8 57.2 37.8 56.5 37.9 55.8 37.1 56.5 36.3 57.2 35.7 57.9 36.2 58.5 36.9 59.1 37.7 59.8L37.8 59.9 37.7 59.9C37.5 60 37.2 60 37 59.9L37 59.9C36.4 59.3 35.9 58.9 35.4 58.4 35.3 58.5 35.2 58.6 35.2 58.7L35.1 58.8 35.1 58.8C35 58.8 34.9 58.9 34.7 59L34.7 59 34.7 59C34.7 59 34.6 58.9 34.6 58.9 34.6 58.9 34.5 58.9 34.5 58.8L34.4 58.8 34.4 58.7C34.6 58.4 34.8 58.2 35 58 33.3 56.1 32.5 54.3 32.5 52.9 32.1 52.7 31.8 52.3 31.8 51.8 31.6 50.8 32.2 50.2 32.9 50.2ZM47.1 65.7C46.4 67.7 45.4 69.1 44.3 69.7 44.2 70.3 43.7 70.8 43.1 70.8 42.5 70.8 42 70.3 41.9 69.7 40.8 69.1 39.8 67.8 39.1 65.8L39.1 65.7 39.7 65.5 39.7 65.6C40.3 67.3 41.1 68.5 42 69.1 42.2 68.6 42.6 68.2 43.2 68.2 43.8 68.2 44.2 68.6 44.4 69 45.3 68.4 46.1 67.2 46.7 65.6L46.7 65.5 46.8 65.5C46.8 65.6 46.9 65.6 47.1 65.7L47.1 65.7 47.1 65.7ZM42 65.6C42 65.2 42.1 64.1 42.3 63.7 42.5 63.6 42.8 63.5 43.1 63.5 43.4 63.5 43.7 63.6 44 63.8 44.1 64.2 44.3 65.2 44.3 65.6 44.3 66 43.3 66.3 43.2 66.4 42.9 66.3 42 66.1 42 65.6ZM54.8 61.6C54.7 61.7 54.6 61.8 54.5 61.8 54.5 61.8 54.5 61.8 54.5 61.8 54.4 61.8 54.3 61.9 54.1 61.9L54 61.9C53.8 61.9 53.6 61.9 53.5 61.8 53.4 61.8 53.4 61.7 53.3 61.7 53.3 61.7 53.3 61.7 53.3 61.7 53.3 61.7 53.3 61.7 53.3 61.7 53 61.7 52.3 61.9 52.1 62 52.2 62 53.1 62.1 53.7 62.6 54 62.8 54.6 62.9 54.8 62.9 54.8 63 53.8 63.7 51.9 63.3L51.4 63.2C50.5 63 49.7 62.9 48.8 62.9 48.9 62.9 49 63 49 63 49.2 63.1 49.5 63.2 49.7 63.3 49.7 63.3 49.8 63.3 49.8 63.4 49.8 63.4 49.9 63.4 49.9 63.4 50 63.4 50.1 63.4 50.1 63.5 50.2 63.5 50.3 63.6 50.4 63.6 50.5 63.7 50.7 63.8 50.7 63.9 50.7 64 50.8 64 50.8 64.1 50.8 64.1 50.8 64.1 50.8 64.1 50.8 64.3 50.8 64.4 50.7 64.6 50.4 65 50 65 49.6 64.6 49.6 64.6 49.5 64.5 49.5 64.5 49.4 64.4 49.3 64.3 49.2 64.1 49.2 64.1 49.2 64 49.2 64 49.2 64 49.2 64 49.1 64 48.9 63.9 48.8 63.7 48.6 63.7 48.3 63.6 47.9 63.5 47.6 63.4 47.5 63.4 47.4 63.4 47.3 63.4 47.6 63.6 47.9 63.8 48 64 48 64 48 64 48 64.1 48.2 64.4 48.2 64.7 48.3 65 48.6 65.6 48.7 65.7 49 65.9 48.7 66 47.2 66 46.5 64.9 46.5 64.9 46.4 64.8 46.4 64.7 46.2 64.3 46.1 63.9 46 63.6 45.9 63.3 46.1 63 45.9 62.9 45.7 62.8 45.6 62.9 45.6 62.9 45.6 62.9 45.6 62.9 45.6 62.9 45.6 62.9 45.6 62.9 45.6 62.9 45.6 62.9 45.6 62.9 45.6 62.9 45.6 62.9 45.6 62.9 45.6 62.9L45.6 62.9C45.6 62.9 45.6 62.9 45.6 62.9L45.6 62.9C45.5 63 45.5 63 45.5 63L45.5 63.1C45.5 63.2 45.4 63.2 45.4 63.2 45.4 63.2 45.4 63.3 45.4 63.3 45.4 63.3 45.4 63.4 45.3 63.4 45.3 63.4 45.3 63.4 45.2 63.4 45.1 63.4 45.1 63.4 45 63.4 45 63.4 45 63.4 44.9 63.4 44.9 63.4 44.8 63.4 44.8 63.5 44.7 63.5 44.6 63.6 44.5 63.6 44.4 63.6 44.3 63.5 44.3 63.4 44.3 63.3 44.3 63.3 44.3 63.2L44.3 63.2C44.2 63.2 44.2 63.2 44.1 63.2 44 63.2 44 63.2 43.9 63.1 43.9 63 43.9 62.9 43.9 62.9 43.9 62.8 43.9 62.8 43.9 62.8 43.8 62.9 43.8 62.9 43.7 62.9 43.6 62.9 43.6 62.9 43.5 62.9 43.4 62.9 43.4 62.8 43.4 62.7L43.4 62.6C43.4 62.6 43.4 62.6 43.4 62.6 43.4 62.6 43.4 62.6 43.4 62.5 43.4 62.5 43.4 62.5 43.4 62.5 43.4 62.5 43.4 62.5 43.3 62.5L43.2 62.5C43.2 62.5 43.2 62.5 43.2 62.5 43.1 62.5 42.9 62.4 42.8 62.4 42.8 62.4 42.8 62.4 42.7 62.4 42.7 62.4 42.7 62.4 42.7 62.4 42.6 62.4 42.4 62.5 42.3 62.5 42.3 62.5 42.3 62.5 42.3 62.5L42.2 62.5C42.2 62.5 42.1 62.5 42.1 62.5 42.1 62.5 42.1 62.5 42.1 62.4L42.1 62.4C42.1 62.4 42.1 62.4 42.1 62.3 42.1 62.3 42.1 62.3 42.1 62.3 42.1 62.3 42.2 62.2 42.2 62.2 42.2 62.2 42.2 62.2 42.2 62.1 42.2 62.1 42.2 62.1 42.2 62.1 42.1 62.1 42.1 62.1 42 62.1 42 62.1 42 62.2 42 62.2 42 62.2 42 62.2 41.9 62.2 41.9 62.2 41.9 62.3 41.9 62.3L41.9 62.4C41.9 62.4 41.9 62.4 41.9 62.4L41.9 62.4C41.9 62.5 41.9 62.6 41.8 62.6 41.7 62.7 41.7 62.7 41.6 62.6 41.6 62.6 41.5 62.6 41.5 62.5 41.5 62.5 41.4 62.5 41.4 62.4 41.4 62.4 41.4 62.4 41.4 62.4 41.4 62.4 41.4 62.4 41.4 62.4 41.4 62.4 41.4 62.4 41.4 62.4 41.4 62.4 41.4 62.4 41.4 62.4 41.4 62.4 41.4 62.4 41.4 62.4 41.4 62.4 41.4 62.4 41.4 62.4 41.4 62.4 41.4 62.4 41.4 62.4 41.4 62.4 41.4 62.4 41.4 62.4L41.4 62.4C41.4 62.4 41.4 62.4 41.4 62.4 41.4 62.4 41.4 62.5 41.5 62.5 41.5 62.6 41.5 62.6 41.5 62.7 41.4 62.8 41.4 62.8 41.3 62.8 41.3 62.8 41.2 62.8 41.2 62.8 41.2 62.8 41.1 62.8 41.1 62.8 41.1 62.9 41.2 62.9 41.1 63 41.1 63.1 41 63.1 40.9 63.1 40.8 63.1 40.8 63.1 40.7 63.1 40.7 63.1 40.7 63.1 40.6 63.1 40.6 63.1 40.5 63.1 40.5 63.1 40.5 63.1 40.4 63 40.4 63 40.4 63 40.3 63 40.2 63 40.2 63 40.1 63 40.1 62.9 40.1 62.9 40 62.8 40 62.8L40 62.8C40 62.8 40 62.8 40 62.8 40 62.8 40 62.8 40 62.8 40 62.8 40 62.7 40 62.7L40 62.7C39.8 62.5 39.5 63.2 39.5 63.2 38.6 65.1 36.4 65.5 36.4 65.4 36.4 65.4 36.9 65.2 37.1 64.5 37.2 64.1 37.2 64 37.4 63.6 37.4 63.5 37.5 63.5 37.5 63.4 37.6 63.2 37.9 63.1 38.1 62.9 38.1 62.9 38.1 62.9 38.1 62.9 38 62.9 37.9 62.9 37.8 62.9 37.5 63 37.2 63 36.8 63.2 36.6 63.3 36.5 63.4 36.3 63.5 36.3 63.5 36.3 63.5 36.2 63.5 36.2 63.5 36.2 63.6 36.2 63.6 36.2 63.7 36.1 63.8 36 64 36 64 35.9 64.1 35.9 64.1 35.9 64.1 35.9 64.1 35.9 64.1 35.5 64.5 35.2 64.5 34.8 64.1 34.8 64.1 34.7 64 34.7 64 34.6 63.9 34.6 63.7 34.7 63.6 34.7 63.5 34.8 63.4 34.9 63.3 35 63.2 35.1 63.2 35.2 63.1 35.3 63 35.4 63 35.5 63 35.6 63 35.6 63 35.7 62.9 35.7 62.9 35.8 62.9 35.9 62.9 35.9 62.9 35.9 62.8 36 62.8 36.1 62.8 36.2 62.7 36.3 62.7 36.4 62.7 36.5 62.6 36.6 62.6 36.6 62.6 36.7 62.6 36.8 62.5 36 62.5 35.2 62.6 34.3 62.8 34.2 62.8 34 62.9 33.8 62.9 32.8 63.1 30.9 62.6 30.9 62.5 30.9 62.4 31.4 62.4 31.9 62.1 32.3 61.9 32.5 61.7 32.8 61.6 33.3 62 33.9 62 34 62 33.8 61.9 32.9 61.8 32.6 61.7 32.6 61.7 32.6 61.7 32.6 61.7 32.6 61.7 32.6 61.7 32.6 61.7 32.6 61.7 32.6 61.7 32.6 61.7 32.6 61.7 32.5 61.8 32.4 61.8 32.2 61.9 32 61.9 31.8 61.9 31.7 61.9 31.5 61.9 31.4 61.8 31.4 61.8 31.4 61.8 31.4 61.8 31.3 61.8 31.2 61.7 31.1 61.6 31 61.5 31 61.4 31 61.1 31.1 60.7 31.5 60.5 32 60.6 32.3 60.7 32.5 60.8 32.6 60.9 32.6 60.9 32.7 61 32.7 61 32.7 61 32.7 61 32.7 61 33 61 33.4 61.2 33.8 61.3 34.2 61.5 34.5 61.6 34.7 61.6 34.6 61.6 34.5 61.5 34.4 61.5 34.3 61.5 34.2 61.4 34.2 61.4 34.1 61.3 34 61.3 33.9 61.2 33.3 60.9 32.7 60.6 32.3 60.2 32 59.8 31.9 59.6 31.8 59.2 31.7 58.3 31.3 57.9 31.3 57.8 31.4 57.7 32.8 58.4 33.3 58.9 33.6 59.3 33.7 59.6 33.8 59.9L33.8 60C33.9 60.3 34.2 60.6 34.7 60.9 34.8 60.9 34.8 61 34.9 61 34.8 60.8 34.7 60.7 34.6 60.5 34.6 60.5 34.6 60.4 34.6 60.4 34.6 60.4 34.5 60.3 34.5 60.3 34.5 60.3 34.4 60.2 34.4 60.1 34.3 60 34.3 59.9 34.2 59.8 34.1 59.5 34.1 59.2 34.2 59.1 34.3 59 34.4 58.9 34.6 58.8 35 58.7 35.3 58.9 35.4 59.5 35.4 59.6 35.4 59.7 35.4 59.8 35.4 59.9 35.4 60 35.4 60.1 35.4 60.1 35.4 60.2 35.4 60.2 35.4 60.2 35.4 60.2 35.4 60.3 35.6 60.9 36.1 61.4 36.7 61.8 36 61.2 35.6 59.8 35.7 59.8 35.8 59.7 36.4 60.1 37 60.4 37.3 60.5 37.6 60.7 37.9 60.9 38.1 61 38.3 61.2 38.4 61.3 38.6 61.4 38.7 61.6 38.8 61.7L38.8 61.7C38.9 61.8 39 61.9 39.1 62 39.2 62.1 39.2 62.1 39.3 62.2 39.5 62.3 39.8 62.2 39.8 62.2 39.9 62.2 40 62.2 40.1 62.1 40.1 62.1 40.1 62.1 40.1 62.1 40.1 62.1 40.1 62.1 40.2 62 40.3 61.9 40.4 61.9 40.5 61.9 40.5 61.9 40.5 61.8 40.5 61.8 40.5 61.6 40.6 61.5 40.8 61.4 40.8 61.4 40.9 61.4 40.9 61.3 40.9 61.3 41 61.3 41 61.3 41 61.3 41.1 61.3 41.1 61.3 41.1 61.3 41.2 61.3 41.2 61.3 41.2 61.2 41.3 61.2 41.4 61.1 41.4 61.1 41.4 61.1 41.4 61.1 41.6 61 41.9 61 42.1 61.2 42.2 61.3 42.2 61.4 42.3 61.5 42.3 61.5 42.3 61.6 42.3 61.6 42.3 61.7 42.3 61.7 42.3 61.8 42.3 61.9 42.3 61.9 42.3 62 42.3 62 42.3 62 42.3 62 42.4 62 42.6 62 42.7 62 42.7 62 42.7 62 42.7 62 42.7 62 42.7 62 42.7 62 42.7 62 42.7 62 42.7 62 42.8 62 42.8 62 42.9 62 43 62 43.1 62 43.2 62.1 43.2 62.1 43.2 62.1 43.2 62.1 43.3 62.1 43.4 62 43.5 62 43.6 62 43.6 62 43.7 62 43.7 62 43.7 62 43.7 62 43.7 62 43.7 62 43.7 62 43.7 62 43.7 62 43.7 62 43.7 62 43.8 62 43.8 62 43.8 61.9 43.8 61.8 43.8 61.7 43.8 61.6 43.8 61.5 43.9 61.4 43.9 61.4 43.9 61.3 44 61.3 44 61.3 44 61.3 44 61.3 44 61.3 44.1 61.2 44.1 61.2 44.3 61.1 44.5 61.1 44.7 61.2 44.7 61.2 44.7 61.2 44.7 61.2 44.8 61.2 44.8 61.3 44.9 61.4 45 61.4 45 61.4 45.1 61.4 45.1 61.4 45.2 61.4 45.2 61.4 45.2 61.4 45.3 61.4 45.3 61.4 45.3 61.4 45.3 61.4 45.3 61.4 45.5 61.5 45.6 61.6 45.6 61.8 45.6 61.8 45.6 61.8 45.6 61.8 45.6 61.8 45.6 61.8 45.7 61.8 45.7 61.8 45.7 61.8 45.7 61.8 45.7 61.8 45.8 61.8 45.8 61.8 45.8 61.8 45.8 61.8 45.8 61.8 45.8 61.8 45.8 61.8 45.8 61.8 45.8 61.8 46.3 61.8 46.4 61.9L46.9 61.9C47 61.8 47 61.8 47.1 61.7 47.2 61.6 47.4 61.4 47.5 61.3 47.7 61.2 47.8 61 48 60.9 48.3 60.7 48.7 60.6 49 60.5 50 60.1 50.1 59.5 50.2 59.5 50.3 59.6 50 61.2 49.3 61.8 49.8 61.4 50.3 60.9 50.6 60.3 50.6 60.3 50.6 60.3 50.6 60.2 50.6 60.2 50.6 60.1 50.6 60.1 50.6 60 50.6 59.9 50.6 59.8 50.6 59.7 50.6 59.6 50.6 59.5 50.8 59 51 58.7 51.4 58.8 51.6 58.9 51.7 59 51.8 59.1 51.9 59.3 51.9 59.5 51.8 59.8 51.8 59.9 51.7 60 51.6 60.1 51.5 60.2 51.5 60.2 51.4 60.3 51.4 60.3 51.3 60.4 51.3 60.4 51.3 60.4 51.3 60.5 51.3 60.5 51.2 60.7 51.1 60.8 50.9 61 51 60.9 51 60.9 51.1 60.8 51.6 60.4 51.9 60.1 52 59.8 52.1 59.5 52.2 59.2 52.5 58.8 53 58.3 53.1 58.1 53.6 57.8 53.7 57.7 54.4 57.6 54.5 57.6 54.6 57.7 54 57.9 53.8 58.9 53.7 59.2 53.6 59.7 53.3 60.1 52.9 60.6 52.5 60.7 52 61L51.9 61.1C51.8 61.2 51.7 61.2 51.5 61.3 51.3 61.4 51.2 61.5 51.1 61.5 51.4 61.4 51.7 61.3 52.1 61.2 52.4 61 52.8 60.9 53.2 60.9 53.2 60.9 53.2 60.9 53.2 60.9 53.2 60.9 53.2 60.8 53.3 60.8 53.4 60.7 53.6 60.6 53.9 60.5 54.4 60.3 54.8 60.5 54.9 61 55 61.3 54.9 61.5 54.8 61.6Z" fill="#13377D"/><path d="M44.1 61.4 44.1 61.4 44.1 61.4Z" fill="#13377D"/><path d="M72.3 41.5C73.8 40.8 76.3 39.1 77.3 37.9 75.9 37.4 73.1 37.1 71.5 37.1 74.8 34.8 74.9 30 74 26.5 73.2 29.3 71.2 31.6 69.9 33 70 34.4 69.6 36.8 68.8 38.2 69.9 38.6 71.2 39.2 72.1 39.9 71.5 40.7 70.2 41.8 69.4 42.5 70.1 43.2 71.2 44.5 71.8 45.3 71 45.9 69.4 46.5 68.5 46.8 68.9 47.7 69.5 49.2 69.7 50.3 68.7 50.5 67.4 50.6 66 50.6 66.1 51.6 65.9 53.2 65.7 54.2 64.4 54.1 62.9 53.6 62.2 53.2 61.8 54.6 60.9 56 60.9 56.1 59.7 54.7 58.5 54.2 57.4 54.2L57.4 53.3C58.5 53.3 59.7 53.7 60.6 54.6 61 53.9 61.4 52.6 61.6 51.8 62.4 52.2 63.7 52.7 64.8 52.9 64.9 51.9 65 50.6 64.9 49.6 66 49.7 67.2 49.7 68.5 49.5 68.3 48.6 67.5 47.1 67 46.3 68.1 46 69.5 45.4 70.2 45 69.6 44.2 68.6 43.1 67.9 42.4 68.7 41.8 70 40.8 70.5 40.2 69.6 39.6 68.4 39 67.4 38.6 68.8 36.7 69.1 32.8 68.8 31L68.8 31C67.6 35.1 64 38.1 61.8 39.5 61.7 39.6 61.6 39.7 61.5 39.7L61.5 39.7C61.5 39.7 61.5 39.7 61.5 39.7 61.5 39.7 61.5 39.7 61.5 39.7 61.4 39.8 61 40.3 61.2 40.9 61.2 41.1 61.3 41.2 61.3 41.4 61.5 42.2 61.5 43.4 60.3 44.5 59.3 45.4 58.1 45.5 57.4 45.4L57.4 43.2C57.4 42.9 57.2 42.7 56.9 42.7L55.4 42.7 54.7 42C54.7 42 55.4 42 56.2 42 57 41.9 57.9 41.5 57.9 41.5 57.9 41.5 57 41.5 56.6 41.4 56.1 41.5 55 41 54.1 40 53.8 39.6 53.5 39.2 53.3 38.8 52.5 38.1 51.6 37.2 51 35.9 50.6 35 50.4 33.7 50.3 32.9 50 33.1 49.7 33.5 49.3 34 48.6 34.9 48.3 36.2 48.3 36.2L48 37.2 47.5 36.3C47.5 36.3 46.8 35.1 46.7 33.6 46.7 32.9 46.7 32.3 46.8 31.8 46.6 31.9 46.3 32.1 46 32.3 44.8 33.2 44.1 34.1 44.1 34.1 43.5 34.9 43.1 35.6 43 35.9 42.9 35.5 42.5 34.9 41.9 34.1 41.9 34.1 41.3 33.1 40 32.3 39.7 32.1 39.4 31.9 39.2 31.8 39.3 32.3 39.3 33 39.3 33.6 39.2 35.1 38.5 36.2 38.5 36.3L38 37.1 37.7 36.1C37.7 36.1 37.3 34.8 36.7 33.9 36.3 33.4 36 33 35.7 32.8 35.6 33.6 35.4 35 35 35.8 34.4 37.1 33.6 38.1 32.7 38.7 32.5 39.1 32.2 39.5 31.9 39.9 31 40.9 29.9 41.4 29.4 41.5 29 41.6 28.1 41.6 28.1 41.6 28.1 41.6 29 42 29.8 42.1 30.6 42.2 31.3 42.1 31.3 42.1L30.6 42.8 29.1 42.8C28.8 42.8 28.6 43 28.6 43.3L28.6 45.5C27.9 45.6 26.6 45.5 25.7 44.6 24.6 43.5 24.5 42.3 24.7 41.5 24.8 41.4 24.8 41.2 24.8 41 25 40.4 24.6 39.9 24.5 39.8 24.5 39.8 24.5 39.8 24.5 39.8 24.5 39.8 24.5 39.8 24.5 39.8L24.5 39.8C24.4 39.7 24.3 39.6 24.2 39.6 22 38.2 18.5 35.2 17.2 31.1L17.2 31.1C16.9 32.9 17.3 36.7 18.6 38.7 17.6 39.1 16.3 39.7 15.5 40.3 16 40.9 17.3 42 18.1 42.5 17.4 43.1 16.3 44.3 15.8 45.1 16.5 45.5 17.9 46.1 19 46.4 18.5 47.2 17.7 48.7 17.5 49.6 18.7 49.8 20 49.8 21.1 49.7 21 50.7 21.1 52.1 21.2 53 22.3 52.8 23.6 52.4 24.4 51.9 24.6 52.6 25 54 25.4 54.7 26.3 53.8 27.5 53.4 28.6 53.4L28.6 54.3C27.5 54.3 26.3 54.8 25.1 56.2 25.1 56.1 24.2 54.7 23.8 53.3 23.1 53.6 21.6 54.2 20.3 54.3 20.1 53.3 20 51.7 20 50.7 18.6 50.7 17.3 50.6 16.3 50.4 16.5 49.3 17.1 47.8 17.5 46.9 16.6 46.6 15 45.9 14.2 45.4 14.7 44.6 15.9 43.3 16.6 42.6 15.8 42 14.5 40.8 13.9 40 14.8 39.3 16.1 38.7 17.2 38.3 16.4 36.8 16 34.4 16.1 33.1 14.7 31.7 12.7 29.4 12 26.6 11 30.1 11.2 35 14.5 37.2 12.9 37.2 10.1 37.6 8.7 38 9.7 39.2 12.2 40.8 13.7 41.6 12.5 42 10.4 43.2 9.5 44 10.6 44.7 13.1 45.5 14.3 45.8 13.6 46.4 12.2 48 11.7 48.8 12.7 49.1 14.7 49.4 16 49.4 15.6 50.3 15.1 51.8 15 52.7 15.6 52.8 17.7 52.7 18.8 52.4 18.7 53.3 18.7 54.8 18.9 55.5 19.9 55.4 21.4 54.9 22.1 54.7 22.3 55.5 23 57.1 23.3 57.5 23.8 57.4 24.3 57.3 24.8 57.1 26.2 56.6 27.7 57.2 28.3 58.5 29.3 60.8 28.9 63.5 27 63 24.8 63.4 26.3 66.2 25 67.1 26.7 68.3 27.2 65.5 29.4 66 29.2 67 29.2 68.9 29.4 69.7 30.1 69.2 31.1 68.8 31.7 68.7 31.5 69.3 31.4 70.7 31.6 71.6 32 71.3 34.9 70.5 34.9 70.5 34.9 70.5 33.8 72.7 34.5 74.9 34.9 75.2 37.5 73.9 37.5 73.2 37.6 74.1 36.5 76.1 34.8 76.5 36.6 78.3 38.2 78.2 38.4 78.2 38.7 78.2 38.9 78.2 39.1 78 39 78.5 38.9 79.2 39 79.6 39.1 79.6 39.2 79.6 39.3 79.6 39.8 79.6 40.2 79.5 40.5 79.4 40.6 79.9 40.8 80.4 41.1 80.8 41.2 80.9 41.2 80.9 41.3 81 41.7 81 42.7 80.5 42.9 80.2L42.9 80.2C42.9 80.2 42.9 80.2 42.9 80.2 42.9 80.2 42.9 80.2 42.9 80.2L42.9 80.2C43.1 80.5 44.1 81 44.5 81 44.6 80.9 44.7 80.9 44.7 80.8 45.1 80.4 45.3 79.8 45.3 79.4 45.7 79.6 46.1 79.6 46.5 79.6 46.6 79.6 46.7 79.6 46.8 79.6 46.9 79.2 46.9 78.5 46.7 78 46.9 78.1 47.2 78.2 47.4 78.2 47.6 78.2 49.2 78.3 51 76.5 49.3 76.1 48.2 74.1 48.3 73.2 48.3 74 50.9 75.2 51.3 74.9 52 72.7 50.9 70.5 50.9 70.5 50.9 70.5 53.7 71.2 54.2 71.6 54.4 70.7 54.3 69.3 54.1 68.7 54.7 68.7 55.7 69.2 56.4 69.7 56.6 68.9 56.6 67.1 56.4 66 58.5 65.5 59 68.3 60.8 67.1 59.6 66.2 61.1 63.4 58.8 63 56.9 63.6 56.5 60.8 57.5 58.5 58.1 57.2 59.7 56.6 61 57.1 61.5 57.3 62 57.4 62.5 57.5 62.7 57.1 63.5 55.5 63.7 54.7 64.4 55 65.9 55.4 66.9 55.5 67 54.8 67.1 53.3 67 52.4 68 52.6 70.2 52.7 70.8 52.7 70.7 51.7 70.2 50.2 69.8 49.4 71.1 49.3 73.1 49.1 74.1 48.8 73.6 47.9 72.2 46.3 71.5 45.8 72.7 45.5 75.2 44.7 76.3 44 75.6 43.1 73.5 41.9 72.3 41.5ZM56.1 64C56 64.2 55.9 64.3 55.8 64.5 55.8 64.6 55.7 64.6 55.7 64.7 55.6 64.8 55.5 64.9 55.4 65.1 55.3 65.2 55.3 65.2 55.2 65.3 55.1 65.5 54.9 65.6 54.8 65.8 54.7 65.9 54.6 66 54.5 66.1 54.4 66.2 54.3 66.3 54.2 66.4 54.1 66.5 54 66.6 53.8 66.8 53.7 66.9 53.7 66.9 53.6 67 53.3 67.3 52.9 67.6 52.5 67.8 52.5 67.8 52.5 67.8 52.5 67.8 52 68.2 51.5 68.5 50.9 68.8L50.9 68.8C50.7 68.9 50.5 69 50.3 69.1 45.8 71.4 43.6 73.2 42.9 73.7 42.9 73.7 42.8 73.7 42.8 73.7 42.1 73.1 39.9 71.4 35.4 69.1 35.2 69 35 68.9 34.8 68.8L34.8 68.8C34.2 68.5 33.7 68.2 33.2 67.8 33.2 67.8 33.2 67.8 33.2 67.8 32.8 67.5 32.5 67.2 32.1 67 32 66.9 31.9 66.9 31.9 66.8 31.8 66.7 31.6 66.6 31.5 66.4 31.4 66.3 31.3 66.2 31.2 66.1 31.1 66 31 65.9 30.9 65.8 30.7 65.6 30.6 65.5 30.5 65.3 30.4 65.2 30.4 65.2 30.3 65.1 30.2 65 30.1 64.9 30 64.7 30 64.6 29.9 64.6 29.9 64.5 29.8 64.3 29.7 64.2 29.6 64 29 62.7 29.1 61.6 29.1 61.6L29.1 61.6 29.1 44.1C29.1 43.8 29.3 43.6 29.6 43.6L31.1 43.6 43 43.6 43 43.6 43 43.6 43 43.6 54.5 43.6 56 43.6C56.3 43.6 56.5 43.8 56.5 44.1L56.5 61.6 56.5 61.6C56.6 61.6 56.7 62.7 56.1 64Z" fill="#13377D"/><path d="M55.1 13.6 55.1 13.6 55.1 13.6Z" fill="#13377D"/><path d="M55.5 16C55.9 16 56.1 15.7 56.1 15.3 56.1 14.9 55.8 14.6 55.5 14.6 55.1 14.6 54.9 14.9 54.9 15.3 54.9 15.7 55.2 16 55.5 16Z" fill="#13377D"/><path d="M55.5 19.7C55.9 19.7 56.3 18 56.3 17.2 56.3 16.7 55.9 16.4 55.5 16.4 55.1 16.4 54.7 16.7 54.7 17.2 54.7 18 55.1 19.7 55.5 19.7Z" fill="#13377D"/><path d="M55.1 13.6 56 13.6 55.8 12.5 56.9 12.6 56.9 11.7 55.8 11.9 56 10.8 55.1 10.8 55.2 11.9 54.1 11.7 54.1 12.6 55.2 12.5Z" fill="#13377D"/><path d="M51.6 21.7C51.9 21.8 52.2 21.8 52.5 21.9 52.5 21.9 52.6 21.9 52.6 21.9L52.6 21.9 52.6 21.9 52.6 21.9 52.6 21.9 52.6 21.9 52.6 21.9 52.6 21.9 52.6 21.9 52.6 21.9C52.6 21.9 52.6 21.9 52.6 21.9L52.6 21.9 52.7 21.9 52.7 21.9C52.8 21.9 52.8 21.9 52.8 21.9L53 21.9C53.1 21.9 53.2 21.9 53.3 21.9 53.4 21.9 53.4 21.9 53.5 21.9 53.6 21.9 53.7 21.9 53.8 21.9 54.6 21.9 55.4 21.7 56.2 21.5 57 21.3 57.8 21.1 58.7 21.1L58.8 21.1C58.8 21.1 58.9 21.1 58.9 21.1L58.9 21.1 58.9 21.1 59 21.1C59 21.1 59 21.1 59 21.1L59 21.1 59 21.1 59 21.1 59 21.1 59.1 21.1 59.2 21.1 59.2 21.1 59.2 21.1 59.2 21.1 59.2 21.1C59.2 21.1 59.3 21.1 59.3 21.1 59.5 20.2 59.8 19.2 59.8 18.6 59.8 17.4 59.1 16.1 56.8 15.7 56.8 17.2 56.1 20.7 55.3 20.7L55.2 20.7C54.4 20.7 53.7 17.2 53.7 15.7 51.4 16.1 50.7 17.4 50.7 18.6 50.7 19.3 51 20.6 51.3 21.5 51.6 21.6 51.6 21.6 51.6 21.7Z" fill="#13377D"/><path d="M63.6 15.4 63.6 15.4C63.6 15.4 63 13.8 64 13.3 65.1 12.9 63.6 13.1 64.4 10.9L64.4 10.9C65.3 8.3 67.3 8.9 67.3 8.9 65.9 7.8 64.8 7.9 64 8.5 63.5 8.9 62.8 9.7 62.3 11.3 61.9 13.3 62.6 15.2 63.6 15.4Z" fill="#13377D"/><path d="M68.8 11.5C68.9 14.8 74.4 16.2 74.4 16.2 74.4 16.2 71.2 13.9 71.8 12.2 71.8 12.2 73.9 13.1 76.3 12.7 71.2 11.6 72.9 10 71.6 8.7 70.3 7.3 68.3 7.2 67.8 7.1 66.5 7 66.4 7 64.9 7.4 68.4 7.5 68.8 9.3 68.8 11.5Z" fill="#13377D"/><path d="M68.1 17.7C68.8 15.1 67.5 13.9 67.5 13.9 67.1 13.4 65 13.5 64.2 14 64.2 14 66.2 14 65.9 16.9 65.6 19.8 61.6 20.4 60.5 20.5L60.4 20.9C62.3 20.9 67.3 20.3 68.1 17.7Z" fill="#13377D"/><path d="M47.2 17.6 45.2 17.6C46.2 20.4 49.1 21.3 51 21.6L50.9 21.3C48.9 20.5 47.9 19.7 47.2 17.6Z" fill="#13377D"/><path d="M30.6 16C31 16 31.2 15.7 31.2 15.3 31.2 14.9 30.9 14.6 30.6 14.6 30.2 14.6 30 14.9 30 15.3 29.9 15.7 30.2 16 30.6 16Z" fill="#13377D"/><path d="M30.6 19.7C31 19.7 31.4 18 31.4 17.2 31.4 16.7 31 16.4 30.6 16.4 30.2 16.4 29.8 16.7 29.8 17.2 29.8 18 30.1 19.7 30.6 19.7Z" fill="#13377D"/><path d="M30.1 13.6 31 13.6 30.9 12.5 32 12.6 32 11.7 30.9 11.9 31 10.8 30.1 10.8 30.3 11.9 29.2 11.7 29.2 12.6 30.3 12.5Z" fill="#13377D"/><path d="M31 13.6 31 13.6 31 13.6Z" fill="#13377D"/><path d="M26.6 21.1 26.6 21.1 26.6 21.1 26.6 21.1 26.6 21.1 26.7 21.1 26.8 21.1 26.8 21.1 26.8 21.1 26.8 21.1 26.8 21.1C26.8 21.1 26.8 21.1 26.8 21.1L27 21.1 27 21.1 27 21.1C27.1 21.1 27.1 21.1 27.1 21.1L27.2 21.1C28.1 21.2 29 21.3 29.7 21.5 30.4 21.7 31.3 21.9 32.1 21.9 32.2 21.9 32.3 21.9 32.4 21.9 32.5 21.9 32.5 21.9 32.6 21.9 32.7 21.9 32.8 21.9 32.9 21.9L33.1 21.9C33.1 21.9 33.2 21.9 33.2 21.9L33.2 21.9 33.3 21.9 33.3 21.9C33.3 21.9 33.3 21.9 33.3 21.9L33.3 21.9 33.3 21.9 33.3 21.9 33.3 21.9 33.3 21.9 33.3 21.9 33.3 21.9 33.3 21.9 33.3 21.9C33.3 21.9 33.4 21.9 33.4 21.9 33.7 21.9 34 21.8 34.3 21.7 34.3 21.6 34.3 21.6 34.4 21.6 34.7 20.7 35 19.4 35 18.7 35 17.5 34.4 16.2 32 15.8 32 17.2 31.3 20.8 30.5 20.8L30.4 20.8C29.6 20.8 28.9 17.3 28.9 15.8 26.6 16.2 25.9 17.5 25.9 18.7 25.9 19.3 26.1 20.3 26.4 21.2 26.5 21.1 26.5 21.1 26.6 21.1Z" fill="#13377D"/><path d="M18.7 8.9C18.7 8.9 20.7 8.3 21.6 10.9L21.6 10.9C22.4 13.1 20.9 12.9 22 13.3 23.1 13.7 22.4 15.4 22.4 15.4L22.4 15.4C23.5 15.2 24.2 13.3 23.6 11.2 23.1 9.6 22.4 8.8 21.9 8.4 21.1 7.9 20.1 7.8 18.7 8.9Z" fill="#13377D"/><path d="M14.2 12.2C14.8 13.9 11.6 16.2 11.6 16.2 11.6 16.2 17.2 14.8 17.2 11.5 17.3 9.3 17.6 7.5 21 7.4 19.5 7.1 19.4 7.1 18.1 7.1 17.6 7.1 15.6 7.3 14.3 8.7 13.1 10 14.7 11.6 9.6 12.7 12.1 13.1 14.2 12.2 14.2 12.2Z" fill="#13377D"/><path d="M20.2 16.9C19.9 14 21.9 14 21.9 14 21.2 13.5 19.1 13.5 18.6 13.9 18.6 13.9 17.3 15 18 17.7 18.7 20.3 23.8 20.9 25.7 20.9L25.6 20.5C24.5 20.4 20.5 19.8 20.2 16.9Z" fill="#13377D"/><path d="M40.9 17.6 38.9 17.6C38.2 19.7 37.2 20.5 35.2 21.3L35.1 21.6C37.1 21.3 39.9 20.4 40.9 17.6Z" fill="#13377D"/><path d="M45.6 29.9C45 30.8 44.5 31.8 44.1 32.8 44.4 32.4 44.9 32 45.4 31.6 46.3 31 47.1 30.6 47.1 30.6L47.9 30.3 47.7 31.1C47.7 31.1 47.4 32.4 47.5 33.5 47.5 34 47.7 34.5 47.8 34.8 48 34.3 48.3 33.8 48.6 33.3 49.6 32 50.4 31.5 50.4 31.5L51 31.2 51 31.9C51 31.9 51.2 34.2 51.7 35.4 52.6 37.4 54.3 38.5 55.3 39 55.2 38.9 55 38.7 54.8 38.5 54.3 38 53.8 37.1 53.5 35.2 53.3 33.6 53.9 32 54.1 31.5 54.2 31.9 54.4 32.3 54.6 32.4 54.6 32.4 54.6 32 54.7 31.6 54.9 30.5 56.1 28.8 57.7 27.8 58 27.6 58.3 27.4 58.5 27.3 58.8 27.2 59 27 59.2 26.8 58.9 26.8 58.5 26.9 58.2 26.9L58.1 26.9C57.9 26.9 57.6 26.9 57.2 26.9 56.4 26.9 55.5 26.8 54.8 26.2 54.1 25.6 53.8 25 53.7 24.6 53.4 24.6 53 24.6 52.5 24.6 51.9 24.6 51.4 24.4 51.1 24.4 50.3 24.9 49.5 25.1 48.5 25.2 48.4 25.2 48.2 25.2 48.1 25.2 48.4 25.5 48.8 25.7 49.1 25.9 49.1 25.9 49.1 25.9 49.2 25.9L49 26C49.1 25.9 47.7 26.7 45.6 29.9Z" fill="#13377D"/><path d="M58.7 24.3C58.3 24.3 58 24.3 57.6 24.3 57.6 24.5 57.6 24.7 57.6 24.9 57.7 25.2 57.8 25.4 58 25.6 58.3 25.4 58.6 24.9 58.7 24.3Z" fill="#13377D"/><path d="M59.5 22 59.5 22 59.5 22C59.4 22 59.4 22 59.5 22L59.5 22 59.5 22 59.5 22 59.4 22 59.4 22C59.4 22 59.4 22 59.3 22L59.3 22 59.3 22 59.3 22 59.3 22 59.3 22C59.3 22 59.3 22 59.3 22L59.3 22 59.3 22 59.3 22C59.3 22 59.3 22 59.3 22 59.2 22 59.2 22 59.1 22 58.3 22 57.5 22.2 56.7 22.4 55.9 22.6 55 22.8 54.2 22.8 54 22.8 53.9 22.8 53.7 22.8 53.6 22.8 53.5 22.8 53.4 22.8 53.3 22.8 53.3 22.8 53.2 22.8 53.1 22.8 53.1 22.8 53 22.8 53 22.8 53 22.8 53 22.8 53 22.8 53 22.8 53 22.8 53 22.8 53 22.8 52.9 22.8 52.9 22.8 52.9 22.8 52.9 22.8 52.9 22.8 52.9 22.8 52.9 22.8 52.9 22.8 52.9 22.8 52.8 22.8 52.8 22.8 52.8 22.8 52.8 22.8 52.8 22.8 52.8 22.8 52.8 22.8 51 22.6 49.8 22 49.2 21.7 49.3 21.9 49.5 22.1 49.8 22.4 49.9 22.5 50 22.6 50.1 22.7 50.3 22.9 50.6 23.1 50.9 23.3 51.3 23.5 53 24.2 55.2 23.9 57.7 23.5 58.2 23.6 58.8 23.6L59 23.6C59.9 23.7 61.2 24.2 61.7 24.5 61.9 24 62.2 23.5 62.3 23 62.2 22.9 62 22.7 61.6 22.5 61.5 22.4 61.4 22.4 61.2 22.3 61 22.2 60.7 22.1 60.3 22.1 59.9 22 59.7 22 59.5 22L59.5 22Z" fill="#13377D"/><path d="M66.5 30.2 66.5 30.2C66.5 30.2 66.5 30.2 66.5 30.2 66.4 30.2 65.5 30.7 63.6 29.5 61.7 28.3 60.3 27.8 59.5 27.6 59.3 27.7 59.2 27.8 59 27.9 58.8 28 58.5 28.2 58.2 28.4 58.1 28.5 58 28.5 57.9 28.6 57.9 28.6 58 28.6 58.1 28.6 59.9 28.8 61.3 29.8 61.4 30.2 61.4 30.2 61.5 30.2 61.5 30.2 61.7 29.6 61.4 29.1 61.4 29.1 61.4 29.1 62.2 29.6 63.8 30.5 65.5 31.6 66.2 30.6 66.5 30.2Z" fill="#13377D"/><path d="M57 25.3C56.9 25.2 56.8 25 56.7 24.9 56.6 24.7 56.6 24.6 56.6 24.5 56.2 24.5 55.7 24.6 55.1 24.7 55 24.7 54.8 24.7 54.7 24.7 55 25.3 55.5 25.9 56.5 26.1 56.6 26.1 56.6 26.1 56.7 26.1 56.8 26.1 56.8 26.1 56.9 26.1 57.3 26.2 57.8 26.2 58.1 26.2 58.8 26.2 59.6 26.1 60.4 25.9 60.6 25.7 60.7 25.4 60.9 25.2 60.9 25.2 60.8 25.1 60.7 25.1 60.5 25 60 24.7 59.7 24.6 59.6 24.9 59.4 25.2 59.2 25.4 58.9 25.6 58.5 25.7 58.1 25.7 57.7 25.7 57.3 25.6 57.1 25.4 57 25.4 57 25.3 57 25.3Z" fill="#13377D"/><path d="M62.3 23.8C61.7 25.4 60.7 26.6 60 27.2 60 27.2 60 27.2 60 27.2 64.5 26 65.3 28.3 65.3 28.4 65.3 28.5 65.3 28.5 65.4 28.4 65.5 28.3 67 26.7 65.9 25.2 65 24 63 23.8 62.3 23.8ZM62.3 25 62.3 25C62.5 24.8 62.6 24.4 62.6 24.4 62.9 24.4 63.5 24.5 63.5 24.9 63.1 24.8 62.6 24.8 62.3 25Z" fill="#13377D"/><path d="M28.5 24.9C28.5 24.7 28.5 24.5 28.5 24.3 28.1 24.3 27.7 24.3 27.4 24.3 27.5 24.9 27.8 25.4 28.1 25.6 28.3 25.4 28.4 25.2 28.5 24.9Z" fill="#13377D"/><path d="M33.6 22.7C33.6 22.7 33.6 22.7 33.6 22.7 33.5 22.7 33.5 22.7 33.6 22.7 33.5 22.7 33.5 22.7 33.5 22.7 33.5 22.7 33.5 22.7 33.5 22.7 33.5 22.7 33.5 22.7 33.4 22.7 33.4 22.7 33.4 22.7 33.4 22.7 33.4 22.7 33.4 22.7 33.4 22.7 33.3 22.7 33.3 22.7 33.2 22.7 33.1 22.7 33.1 22.7 33 22.7 32.9 22.7 32.8 22.7 32.7 22.7 32.5 22.7 32.4 22.7 32.2 22.7 31.3 22.7 30.5 22.5 29.7 22.3 28.8 22.2 28 22 27.2 22 27.1 22 27.1 22 27 22 27 22 27 22 27 22L27 22 27 22 27 22C27 22 27 22 27 22L27 22 27 22 27 22 27 22 27 22C27 22 27 22 26.9 22L26.9 22 26.9 22 26.9 22 26.9 22 26.9 22C26.9 22 26.9 22 26.9 22L26.9 22 26.9 22 26.9 22C26.7 22 26.5 22 26.4 22 26 22 25.7 22.1 25.5 22.2 25.4 22.3 25.2 22.3 25.1 22.4 24.8 22.6 24.6 22.7 24.4 22.9 24.5 23.4 24.8 24 25 24.4 25.5 24.1 26.8 23.5 27.7 23.5L27.9 23.5C28.5 23.5 29 23.4 31.5 23.8 33.7 24.1 35.3 23.4 35.8 23.2 36.1 23 36.4 22.8 36.6 22.6 36.7 22.5 36.8 22.4 36.9 22.3 37.1 22 37.3 21.8 37.5 21.6 36.6 21.9 35.4 22.5 33.6 22.7 33.6 22.7 33.6 22.7 33.6 22.7Z" fill="#13377D"/><path d="M19.6 30.2 19.6 30.2C19.9 30.5 20.6 31.6 22.2 30.7 23.8 29.8 24.6 29.3 24.6 29.3 24.6 29.3 24.3 29.8 24.5 30.4 24.5 30.4 24.5 30.4 24.6 30.4 24.8 30 26.2 28.9 27.9 28.8 28 28.8 28 28.8 28.1 28.8 28 28.7 27.9 28.7 27.8 28.6 27.5 28.4 27.2 28.2 27 28.1 26.8 28 26.7 27.9 26.5 27.8 25.7 27.9 24.3 28.5 22.4 29.7 20.6 30.7 19.7 30.2 19.6 30.2 19.6 30.2 19.6 30.2 19.6 30.2Z" fill="#13377D"/><path d="M26.4 24.6C26.2 24.7 25.6 25 25.4 25.1 25.3 25.1 25.3 25.2 25.2 25.2 25.4 25.5 25.5 25.7 25.7 25.9 26.5 26.1 27.3 26.2 28 26.2 28.4 26.2 28.8 26.2 29.2 26.1 29.3 26.1 29.3 26.1 29.4 26.1 29.5 26.1 29.5 26.1 29.6 26.1 30.6 25.9 31.2 25.2 31.4 24.7 31.3 24.7 31.1 24.7 31 24.7 30.4 24.6 29.9 24.5 29.5 24.5 29.5 24.6 29.4 24.8 29.4 24.9 29.3 25.1 29.2 25.2 29.1 25.3 29.1 25.3 29 25.4 29 25.4 28.7 25.6 28.4 25.7 28 25.7 27.6 25.7 27.2 25.6 26.9 25.4 26.6 25.2 26.5 24.9 26.4 24.6Z" fill="#13377D"/><path d="M20.1 25.2C19 26.7 20.5 28.3 20.6 28.4 20.7 28.5 20.7 28.4 20.7 28.4 20.7 28.3 21.5 26 26 27.2 26 27.2 26 27.2 26 27.2 25.3 26.6 24.3 25.4 23.7 23.8 23.1 23.8 21 24 20.1 25.2ZM23.8 25C23.5 24.8 23 24.8 22.6 24.9 22.6 24.5 23.2 24.4 23.5 24.4 23.5 24.4 23.6 24.8 23.8 25L23.8 25Z" fill="#13377D"/><path d="M37.9 25.2C37.8 25.2 37.6 25.2 37.5 25.2 36.5 25.2 35.7 24.9 34.9 24.4 34.6 24.5 34 24.6 33.5 24.6 33 24.6 32.5 24.6 32.3 24.6 32.2 25 31.9 25.7 31.2 26.2 30.5 26.8 29.6 26.9 28.8 26.9 28.4 26.9 28.1 26.9 27.9 26.9L27.8 26.9C27.6 26.9 27.2 26.8 26.8 26.8 27.1 27 27.3 27.1 27.5 27.3 27.7 27.4 28 27.6 28.3 27.8 29.9 28.9 31.1 30.5 31.3 31.6 31.4 32 31.4 32.4 31.4 32.4 31.6 32.3 31.8 31.9 31.9 31.5 32.1 32 32.8 33.6 32.5 35.2 32.2 37.1 31.7 38 31.2 38.5 31 38.7 30.8 38.9 30.7 39 31.7 38.5 33.4 37.4 34.3 35.4 34.8 34.3 35 32 35 32L35 31.3 35.6 31.6C35.6 31.6 36.5 32.1 37.4 33.4 37.7 33.9 38 34.4 38.2 34.9 38.3 34.5 38.4 34.1 38.5 33.6 38.6 32.4 38.3 31.2 38.3 31.2L38.1 30.4 38.9 30.7C38.9 30.7 39.7 31 40.6 31.7 41.2 32.1 41.6 32.5 41.9 32.9 41.5 31.9 41.1 30.9 40.4 30 38.3 26.8 37 26.1 37 26.1L36.8 26C36.8 26 36.8 26 36.9 26 37.2 25.7 37.6 25.4 37.9 25.2Z" fill="#13377D"/></g></g></svg>