<?xml version="1.0" encoding="utf-8"?>
<!-- Generator: Adobe Illustrator 21.1.0, SVG Export Plug-In . SVG Version: 6.00 Build 0)  -->
<svg version="1.1" id="Слой_1" xmlns="http://www.w3.org/2000/svg" xmlns:xlink="http://www.w3.org/1999/xlink" x="0px" y="0px"
	 viewBox="0 0 367 70" style="enable-background:new 0 0 367 70;" xml:space="preserve">
<style type="text/css">
	.st0{fill:#05336E;}
</style>
<path class="st0" d="M90.5,23.3c0-7.4,4.9-11.6,12.1-11.6c3.5,0,6.1,0.7,6.1,0.7v4.1c0,0-2-2.9-5.9-2.9c-4.7,0-7.5,3.7-7.5,9.5
	c0,5.6,2.8,9.1,7.6,9.1c4.1,0,6.1-2.2,6.1-2.2l0.3,2.7c0,0-2.5,1.5-7.6,1.5C95,34.2,90.5,30.2,90.5,23.3L90.5,23.3z"/>
<path class="st0" d="M133,22.5c0,6.5,0.1,9.1,0.3,11.3h-4.9c0.3-2.1,0.3-4.8,0.3-11.3v-8.3H119v8.3c0,6.5,0.1,9.1,0.3,11.3h-4.9
	c0.3-2.1,0.3-4.8,0.3-11.3c0-6-0.1-8.4-0.3-10.5h18.9C133,14.2,133,16.5,133,22.5L133,22.5z"/>
<path class="st0" d="M155.7,26.8c0,4.4-3.3,7.4-8.2,7.4c-5,0-8.5-2.6-8.5-10.5s2.8-10.8,9.5-11.4l2.9-0.3c1.7-0.2,2.6-0.9,2.6-0.9
	v4.5l-5.8,0.3c-5.1,0.3-7,2-7.1,7c1.2-2.3,3.7-3.6,6.8-3.6C152.7,19.4,155.7,22.4,155.7,26.8L155.7,26.8z M151.3,26.8
	c0-3.4-1.6-5.6-3.8-5.6c-2.3,0-3.8,2.2-3.8,5.6s1.6,5.6,3.8,5.6C149.8,32.4,151.3,30.2,151.3,26.8L151.3,26.8z"/>
<path class="st0" d="M174.9,15.3c-3.1-1.1-5.3-1.2-8.4-1.2H166v8.5c0,6.5,0.1,9.1,0.3,11.3h-4.9c0.3-2.1,0.3-4.8,0.3-11.3
	c0-6-0.1-8.4-0.3-10.5h13.5L174.9,15.3L174.9,15.3z"/>
<path class="st0" d="M197.3,22.6c0,7.3-5,11.6-12.4,11.6c-3.6,0-6.3-0.7-6.3-0.7v-4c0,0,2.3,2.9,6.1,2.9c4.7,0,7.6-3.4,7.8-8.9h-1.2
	c-3.2,0-5.6,0.2-9.1,0.7v-3.4c3.5,0.6,5.9,0.8,9.1,0.8h1.1c-0.4-4.9-3.1-8-7.6-8c-3.9,0-6.1,2.7-6.1,2.7l-0.3-3.1
	c0,0,2.4-1.5,6.8-1.5C192.7,11.7,197.3,15.8,197.3,22.6L197.3,22.6z"/>
<path class="st0" d="M217.8,12.1v3.2c-2.5-1-4.2-1.2-6-1.2h-0.7v8.5c0,6.5,0.1,9.1,0.3,11.3h-4.9c0.3-2.1,0.3-4.8,0.3-11.3V14h-0.6
	c-2,0-3.7,0.3-6.1,1.2V12h17.7V12.1z"/>
<path class="st0" d="M241.4,12.1c-2,3.2-2.9,6.4-5.4,12.1c-2.9,6.6-4.6,9.9-9.3,9.9c-1.7,0-2.5-0.6-2.5-0.6V30c0,0,1.3,1.5,3.2,1.5
	c1.5,0,2.6-0.7,3.4-2l-7.6-12.9c-1-1.6-1.4-2.2-2.9-4.5h5.7c0.5,2.1,0.9,3,2.8,6.3l4.3,7.2c0.2-0.6,0.5-1.3,0.8-2
	c2.3-6.2,3-8,3.1-11.4h4.4V12.1z"/>
<path class="st0" d="M254.8,16.4h1.6l-3.1,5.9l3.1,5.9h-1.6l-4.1-5.9L254.8,16.4L254.8,16.4z M259.8,16.4h1.6l-3.1,5.9l3.1,5.9h-1.6
	l-4.1-5.9L259.8,16.4L259.8,16.4z"/>
<path class="st0" d="M284.8,33.8h-5.6c-0.2-2.3-0.3-3.4-2-7.3L273,16.3l-3.8,10.1c-1.4,3.7-1.7,5-2,7.4h-3.8
	c1.1-2.3,1.5-3.2,3.2-7.4l5.9-14.4h2.1v0.1l0.1-0.1h1.2l6.3,15.7C283.3,30.6,283.7,31.5,284.8,33.8L284.8,33.8z"/>
<path class="st0" d="M305.9,22.6c0,7.3-5,11.6-12.5,11.6c-3.6,0-6.3-0.7-6.3-0.7v-4c0,0,2.3,2.9,6.1,2.9c4.7,0,7.6-3.4,7.8-8.9h-1.2
	c-3.2,0-5.6,0.2-9.1,0.7v-3.4c3.5,0.6,5.9,0.8,9.1,0.8h1.1c-0.4-4.9-3.1-8-7.6-8c-3.9,0-6.1,2.7-6.1,2.7l-0.3-3.1
	c0,0,2.4-1.5,6.8-1.5C301.3,11.7,305.9,15.8,305.9,22.6L305.9,22.6z"/>
<path class="st0" d="M326.4,12.1v3.2c-2.5-1-4.2-1.2-6-1.2h-0.7v8.5c0,6.5,0.1,9.1,0.3,11.3h-4.9c0.3-2.1,0.3-4.8,0.3-11.3V14h-0.6
	c-2,0-3.7,0.3-6.1,1.2V12h17.7V12.1z"/>
<path class="st0" d="M350.6,22.5c0,6.5,0.1,9.1,0.3,11.3H346c0.3-2.1,0.3-4.8,0.3-11.3v-6.3L336,33.8h-4.6c0.3-2.1,0.3-4.5,0.3-10.5
	c0-6.5-0.1-9.1-0.3-11.3h4.9c-0.3,2.1-0.3,4.8-0.3,11.3v6.3L346.3,12h4.6C350.6,14.2,350.6,16.5,350.6,22.5L350.6,22.5z"/>
<path class="st0" d="M357.9,28.3h-1.6l3.1-5.9l-3.1-5.9h1.6l4.1,5.9L357.9,28.3L357.9,28.3z M362.9,28.3h-1.6l3.1-5.9l-3.1-5.9h1.6
	l4.1,5.9L362.9,28.3L362.9,28.3z"/>
<path class="st0" d="M101.5,53.2c0,3.2,0,4.4,0.2,5.5h-2.4c0.1-1,0.2-2.3,0.2-5.5v-4.1h-4.7v4.1c0,3.2,0,4.4,0.2,5.5h-2.4
	c0.1-1,0.2-2.3,0.2-5.5c0-2.9,0-4.1-0.2-5.1h9.2C101.5,49.1,101.5,50.3,101.5,53.2L101.5,53.2z"/>
<path class="st0" d="M112,56.9v1.7h-6.9c0.1-1,0.2-2.3,0.2-5.5c0-2.9,0-4.1-0.2-5.1h6.6v1.6c-1.5-0.6-2.6-0.6-4.1-0.6h-0.3v3.6
	c1.3,0,2.1-0.1,3.4-0.4V54c-1.3-0.3-2.1-0.3-3.4-0.3v4.1h0.6C109.4,57.7,110.6,57.6,112,56.9L112,56.9z"/>
<path class="st0" d="M122.3,51c0,2.2-1.5,3.4-4.5,3.4H117c0,2.1,0,3.2,0.2,4.2h-2.4c0.1-1,0.2-2.3,0.2-5.5c0-2.9,0-4.1-0.2-5.1h3.7
	C120.9,48.1,122.3,49.1,122.3,51L122.3,51z M120.1,51.2c0-1.4-0.7-2.2-2.2-2.2H117v4.4h0.6C119.3,53.5,120.1,52.7,120.1,51.2
	L120.1,51.2z"/>
<path class="st0" d="M133,55.6c0,2-1.6,3.1-4.6,3.1h-3.3c0.1-1,0.2-2.3,0.2-5.5c0-2.9,0-4.1-0.2-5.1h3.8c2.5,0,3.7,0.8,3.7,2.4
	c0,1.2-0.7,2.3-2.5,2.6C132.3,53.3,133,54.3,133,55.6L133,55.6z M127.4,49.1v3.6h0.8c1.5,0,2.3-0.7,2.3-2c0-1.1-0.7-1.7-2.1-1.7h-1
	V49.1z M130.9,55.7c0-1.4-1.1-2.1-2.7-2.1h-0.8v4.1h0.8C129.9,57.7,130.9,57.1,130.9,55.7L130.9,55.7z"/>
<path class="st0" d="M143.2,55.3c0,2.2-1.5,3.4-4.5,3.4h-0.6l0,0h-2.2c0.1-1,0.2-2.2,0.2-5.1c0-3.2,0-4.4-0.2-5.5h2.4
	c-0.1,1.1-0.2,2.2-0.2,4.2h1.3C141.8,52.3,143.2,53.4,143.2,55.3L143.2,55.3z M141,55.5c0-1.4-0.7-2.2-2.2-2.2H138v4.4h0.5
	C140.3,57.7,141,56.9,141,55.5L141,55.5z M146.5,53.2c0,3.2,0,4.4,0.2,5.5h-2.4c0.1-1,0.2-2.3,0.2-5.5c0-2.9,0-4.1-0.2-5.1h2.4
	C146.6,49.1,146.5,50.3,146.5,53.2L146.5,53.2z"/>
<path class="st0" d="M159.5,53.2c0,3.2,0,4.4,0.2,5.5h-2.4c0.1-1,0.2-2.3,0.2-5.5v-3.1l-5,8.6h-2.2c0.1-1,0.2-2.2,0.2-5.1
	c0-3.2,0-4.4-0.2-5.5h2.4c-0.1,1-0.2,2.3-0.2,5.5v3.1l5-8.6h2.2C159.5,49.1,159.5,50.3,159.5,53.2L159.5,53.2z M151.9,45.2h1.9
	c0,0-0.1,1.6,1.2,1.6s1.2-1.6,1.2-1.6h1.9c0,0-0.4,2.4-3,2.4C152.3,47.6,151.9,45.2,151.9,45.2L151.9,45.2z"/>
<path class="st0" d="M176.1,53.2c0,3.5-2.4,5.7-6.1,5.7c-1.8,0-3.1-0.4-3.1-0.4v-2c0,0,1.1,1.4,3,1.4c2.3,0,3.7-1.7,3.8-4.3h-0.6
	c-1.6,0-2.7,0.1-4.4,0.3v-1.7c1.7,0.3,2.9,0.4,4.4,0.4h0.6c-0.2-2.4-1.5-3.9-3.7-3.9c-1.9,0-3,1.3-3,1.3l-0.2-1.5
	c0,0,1.2-0.7,3.3-0.7C173.9,47.9,176.1,49.9,176.1,53.2L176.1,53.2z"/>
<path class="st0" d="M187.7,58.7H185c-0.1-1.1-0.2-1.6-1-3.6l-2.1-5l-1.8,4.9c-0.7,1.8-0.8,2.4-1,3.6h-1.8c0.5-1.1,0.7-1.6,1.5-3.6
	l2.9-7h1l0,0l0,0h0.6l3.1,7.6C187,57.1,187.2,57.6,187.7,58.7L187.7,58.7z"/>
<path class="st0" d="M196.7,56.9v1.7h-6.9c0.1-1,0.2-2.3,0.2-5.5c0-2.9,0-4.1-0.2-5.1h6.6v1.6c-1.5-0.6-2.6-0.6-4.1-0.6H192v3.6
	c1.3,0,2.1-0.1,3.4-0.4V54c-1.3-0.3-2.1-0.3-3.4-0.3v4.1h0.6C194.1,57.7,195.4,57.6,196.7,56.9L196.7,56.9z"/>
<path class="st0" d="M201.9,48.1c-0.1,1-0.2,2.2-0.2,5.1c0,3.2,0,4.4,0.2,5.5h-2.4c0.1-1,0.2-2.3,0.2-5.5c0-2.9,0-4.1-0.2-5.1H201.9
	L201.9,48.1z M209.1,58.7h-3.2l-3.9-5.6l2.1-2.2c1.2-1.2,1.7-1.8,2.2-2.8h2.3c0,0-1.3,1.1-2.5,2.3l-2.1,2.1l1.8,2.4
	C207,56.6,207.8,57.5,209.1,58.7L209.1,58.7z"/>
<path class="st0" d="M218.6,48.1v1.6c-1.2-0.5-2-0.6-2.9-0.6h-0.3v4.1c0,3.2,0,4.4,0.2,5.5h-2.4c0.1-1,0.2-2.3,0.2-5.5v-4.1H213
	c-1,0-1.8,0.1-3,0.6v-1.6H218.6L218.6,48.1z"/>
<path class="st0" d="M228.6,51c0,2.2-1.5,3.4-4.5,3.4h-0.7c0,2.1,0,3.2,0.2,4.2h-2.4c0.1-1,0.2-2.3,0.2-5.5c0-2.9,0-4.1-0.2-5.1h3.7
	C227.2,48.1,228.6,49.1,228.6,51L228.6,51z M226.4,51.2c0-1.4-0.7-2.2-2.2-2.2h-0.9v4.4h0.6C225.6,53.5,226.4,52.7,226.4,51.2
	L226.4,51.2z"/>
<path class="st0" d="M230.7,53.5c0-3.5,2.1-5.6,5.7-5.6c3.3,0,5.3,2.1,5.3,5.4c0,3.5-2.1,5.6-5.7,5.6
	C232.7,58.9,230.7,56.8,230.7,53.5L230.7,53.5z M239.4,53.5c0-2.9-1.2-4.6-3.3-4.6c-1.9,0-3.1,1.7-3.1,4.5c0,2.9,1.2,4.6,3.3,4.6
	C238.2,57.9,239.4,56.2,239.4,53.5L239.4,53.5z"/>
<path class="st0" d="M251.7,48.1v1.6c-1.2-0.5-2-0.6-2.9-0.6h-0.3v4.1c0,3.2,0,4.4,0.2,5.5h-2.4c0.1-1,0.2-2.3,0.2-5.5v-4.1h-0.3
	c-1,0-1.8,0.1-3,0.6v-1.6H251.7L251.7,48.1z"/>
<path class="st0" d="M261.1,56.9v1.7h-6.9c0.1-1,0.2-2.3,0.2-5.5c0-2.9,0-4.1-0.2-5.1h6.6v1.6c-1.5-0.6-2.6-0.6-4.1-0.6h-0.3v3.6
	c1.3,0,2.1-0.1,3.4-0.4V54c-1.3-0.3-2.1-0.3-3.4-0.3v4.1h0.6C258.6,57.7,259.8,57.6,261.1,56.9L261.1,56.9z"/>
<path class="st0" d="M272.4,58.7h-2.9c-0.3-1-0.6-1.5-1.6-3l-0.8-1.3l-0.8,1.2c-0.9,1.4-1.3,2.1-1.5,3.1h-2.1c0,0,0.7-0.9,1.6-2.2
	l2.1-3l-2.1-3.3c-0.8-1.3-1.6-2.1-1.6-2.1h2.8c0.3,1,0.6,1.5,1.6,3l0.7,1l0.6-0.9c0.9-1.4,1.3-2.1,1.5-3.1h2.1c0,0-0.7,0.9-1.6,2.2
	l-2,2.7l2.3,3.5C271.6,57.9,272.4,58.7,272.4,58.7L272.4,58.7z"/>
<path class="st0" d="M283.9,53.2c0,3.2,0,4.4,0.2,5.5h-2.4c0.1-1,0.2-2.2,0.2-5H277c0,2.8,0,4,0.2,5h-2.4c0.1-1,0.2-2.3,0.2-5.5
	c0-2.9,0-4.1-0.2-5.1h2.4c-0.1,1-0.2,2-0.2,4.5h4.9c0-2.5,0-3.6-0.2-4.5h2.4C283.9,49.1,283.9,50.3,283.9,53.2L283.9,53.2z"/>
<path class="st0" d="M296.8,53.2c0,3.2,0,4.4,0.2,5.5h-2.4c0.1-1,0.2-2.3,0.2-5.5v-3.1l-5,8.6h-2.2c0.1-1,0.2-2.2,0.2-5.1
	c0-3.2,0-4.4-0.2-5.5h2.4c-0.1,1-0.2,2.3-0.2,5.5v3.1l5-8.6h2.2C296.8,49.1,296.8,50.3,296.8,53.2L296.8,53.2z"/>
<path class="st0" d="M307.9,53.2c0,3.2,0,4.4,0.2,5.5h-2.4c0.1-0.9,0.2-2.1,0.2-4.6c-0.5,0.2-1.6,0.6-2.9,0.6
	c-2.1,0-2.9-1.1-2.9-2.9c0-1.6,0-2.7-0.2-3.7h2.4c-0.1,1.1-0.2,2.4-0.2,3.5c0,1.2,0.5,1.8,1.6,1.8c0.9,0,1.8-0.2,2.2-0.4
	c0-2.8,0-4-0.2-5h2.4C308,49.1,307.9,50.3,307.9,53.2L307.9,53.2z"/>
<path class="st0" d="M318.4,56.9v1.7h-6.9c0.1-1,0.2-2.3,0.2-5.5c0-2.9,0-4.1-0.2-5.1h6.6v1.6c-1.5-0.6-2.6-0.6-4.1-0.6h-0.3v3.6
	c1.3,0,2.1-0.1,3.4-0.4V54c-1.3-0.3-2.1-0.3-3.4-0.3v4.1h0.6C315.9,57.7,317.1,57.6,318.4,56.9L318.4,56.9z"/>
<path class="st0" d="M320.5,53.6c0-3.6,2.4-5.7,5.9-5.7c1.7,0,2.9,0.4,2.9,0.4v2c0,0-1-1.4-2.9-1.4c-2.3,0-3.7,1.8-3.7,4.6
	c0,2.7,1.4,4.4,3.7,4.4c2,0,3-1.1,3-1.1l0.2,1.3c0,0-1.2,0.7-3.7,0.7C322.7,58.9,320.5,56.9,320.5,53.6L320.5,53.6z"/>
<path class="st0" d="M334.6,48.1c-0.1,1-0.2,2.2-0.2,5.1c0,3.2,0,4.4,0.2,5.5h-2.4c0.1-1,0.2-2.3,0.2-5.5c0-2.9,0-4.1-0.2-5.1H334.6
	L334.6,48.1z M341.7,58.7h-3.2l-3.9-5.6l2.1-2.2c1.2-1.2,1.7-1.8,2.2-2.8h2.3c0,0-1.3,1.1-2.5,2.3l-2.1,2.1l1.8,2.4
	C339.7,56.6,340.4,57.5,341.7,58.7L341.7,58.7z"/>
<path class="st0" d="M353,53.2c0,3.2,0,4.4,0.2,5.5h-2.4c0.1-1,0.2-2.3,0.2-5.5v-3.1l-5,8.6h-2.2c0.1-1,0.2-2.2,0.2-5.1
	c0-3.2,0-4.4-0.2-5.5h2.4c-0.1,1-0.2,2.3-0.2,5.5v3.1l5-8.6h2.2C353,49.1,353,50.3,353,53.2L353,53.2z"/>
<path class="st0" d="M365.9,53.2c0,3.2,0,4.4,0.2,5.5h-2.4c0.1-1,0.2-2.3,0.2-5.5v-3.1l-5,8.6h-2.2c0.1-1,0.2-2.2,0.2-5.1
	c0-3.2,0-4.4-0.2-5.5h2.4c-0.1,1-0.2,2.3-0.2,5.5v3.1l5-8.6h2.2C365.9,49.1,365.9,50.3,365.9,53.2L365.9,53.2z M358.4,45.2h1.9
	c0,0-0.1,1.6,1.2,1.6c1.3,0,1.2-1.6,1.2-1.6h1.9c0,0-0.4,2.4-3,2.4C358.8,47.6,358.4,45.2,358.4,45.2L358.4,45.2z"/>
<path class="st0" d="M41.1,38.1c0.1,0.9,0.1,2,0.1,4.6c0,2.9,0,4-0.1,5h2.1c-0.1-1-0.1-2.1-0.1-5c0-2.7,0-3.7,0.1-4.6H41.1
	L41.1,38.1z"/>
<path class="st0" d="M45.1,45.1c0,1.7,1.3,2.7,3.5,2.7c2.3,0,3.6-1,3.6-2.8c0-1.2-0.7-2-1.9-2.4c1-0.4,1.6-1.1,1.6-2.2
	c0-1.6-1.2-2.5-3.2-2.5c-2.1,0-3.3,1-3.3,2.6c0,1,0.6,1.8,1.6,2.2C45.8,43.1,45.1,43.9,45.1,45.1L45.1,45.1z M48.6,38.8
	c0.9,0,1.4,0.7,1.4,1.8s-0.5,1.7-1.3,1.7c-0.9,0-1.4-0.7-1.4-1.8S47.8,38.8,48.6,38.8L48.6,38.8z M48.6,43.2c1,0,1.6,0.7,1.6,2
	c0,1.2-0.6,1.9-1.6,1.9s-1.6-0.7-1.6-2C47.1,43.9,47.7,43.2,48.6,43.2L48.6,43.2z"/>
<path class="st0" d="M53.6,45.1c0,1.7,1.3,2.7,3.5,2.7c2.3,0,3.6-1,3.6-2.8c0-1.2-0.7-2-1.9-2.4c1-0.4,1.6-1.1,1.6-2.2
	c0-1.6-1.2-2.5-3.2-2.5c-2.1,0-3.3,1-3.3,2.6c0,1,0.6,1.8,1.6,2.2C54.3,43.1,53.6,43.9,53.6,45.1L53.6,45.1z M57.2,38.8
	c0.9,0,1.4,0.7,1.4,1.8s-0.5,1.7-1.3,1.7c-0.9,0-1.4-0.7-1.4-1.8C55.8,39.4,56.3,38.8,57.2,38.8L57.2,38.8z M57.2,43.2
	c1,0,1.6,0.7,1.6,2c0,1.2-0.6,1.9-1.6,1.9s-1.6-0.7-1.6-2C55.6,43.9,56.2,43.2,57.2,43.2L57.2,43.2z"/>
<path class="st0" d="M66.3,41.5c-1.1,0-1.8,0.5-2.2,1c0.1-2.2,0.7-3.7,2.2-3.7c1.2,0,1.9,1.2,1.9,1.2v-1.7c0,0-0.7-0.3-2-0.3
	c-2.4,0-4.2,1.9-4.2,5.2s1.4,4.8,3.7,4.8c2.1,0,3.4-1.3,3.4-3.4C69.2,42.6,68.1,41.5,66.3,41.5L66.3,41.5z M65.9,46.9
	c-1,0-1.6-0.8-1.7-3.4c0.3-0.4,0.9-0.8,1.6-0.8c1,0,1.5,0.7,1.5,2C67.3,46.1,66.7,46.9,65.9,46.9L65.9,46.9z"/>
<path class="st0" d="M59.6,10.2C46-3.4,23.9-3.4,10.3,10.2C3.6,16.8,0.2,25.4,0,34.1l0,0v0.1c0,0.4,0,0.7,0,1.1c0-0.2,0-0.3,0-0.5
	c0,3,0.3,6,1.1,9C6,62.5,25,73.7,43.7,68.9c8.8-2.3,15.9-7.7,20.5-14.8h-0.1c-4.2,6-10.4,10.6-18.1,12.6c-17,4.4-34.4-5.8-38.8-22.8
	c-0.8-3.3-1.1-6.5-1-9.7h1.4c-0.1,2.6,0.2,5.3,0.9,7.9c4,15.3,19.6,24.4,34.8,20.5c5.6-1.4,10.3-4.5,13.9-8.5l0,0
	c-4.6,4.3-10.7,7-17.5,7c-7.3,0-13.9-3.1-18.6-8c-0.1-0.1-0.2-0.2-0.2-0.2c-0.1-0.1-0.2-0.2-0.2-0.3C18.1,49.7,16,46.1,15,42
	c-0.7-2.6-0.9-5.2-0.7-7.8h1.6c-0.1,2.2,0.1,4.4,0.7,6.6c3,11.7,15,18.8,26.7,15.7c2-0.5,3.9-1.3,5.6-2.4h-0.4
	c-2.3,1-4.9,1.6-7.5,1.6c-10.5,0-19-8.5-19-19c0-0.9,0.1-1.7,0.2-2.5h5h20.5l0,0h6.7l0,0h9.4h6.1l0,0C69.6,25.5,66.2,16.8,59.6,10.2
	L59.6,10.2z M11.1,33.1c0.7-3.5,2.3-6.9,5-9.6c7.2-7.2,19-7.2,26.2,0c1.9,1.9,3.3,4.1,4.1,6.4L11.1,33.1L11.1,33.1z M47.9,20.7
	c-8.6-8.6-22.4-8.6-31,0c-3.5,3.5-5.5,7.9-6.1,12.5l-5.7,0.5c0.7-5.4,3.1-10.7,7.3-14.8c10-10,26.2-10,36.2,0c3,3,5.1,6.5,6.3,10.3
	l-1.6,0.1C52.2,26.2,50.4,23.2,47.9,20.7L47.9,20.7z M61.5,28.6c-1.2-4.8-3.7-9.3-7.5-13.1c-11.2-11.2-29.4-11.2-40.7,0
	C8.2,20.6,5.5,27.1,5,33.7L1.8,34L0,34.1c0.4-7.6,3.5-15,9.3-20.8c12.4-12.5,32.6-12.5,45.1,0c4.3,4.3,7.1,9.6,8.4,15.2L61.5,28.6
	L61.5,28.6z"/>
</svg>
