<?xml version="1.0" encoding="UTF-8" standalone="no"?>
<!-- Created with Inkscape (http://www.inkscape.org/) -->

<svg
   xmlns:dc="http://purl.org/dc/elements/1.1/"
   xmlns:cc="http://creativecommons.org/ns#"
   xmlns:rdf="http://www.w3.org/1999/02/22-rdf-syntax-ns#"
   xmlns:svg="http://www.w3.org/2000/svg"
   xmlns="http://www.w3.org/2000/svg"
   xmlns:sodipodi="http://sodipodi.sourceforge.net/DTD/sodipodi-0.dtd"
   xmlns:inkscape="http://www.inkscape.org/namespaces/inkscape"
   width="197.33333"
   height="197.33333"
   id="svg1897"
   sodipodi:version="0.32"
   inkscape:version="0.92.1 r15371"
   version="1.0"
   sodipodi:docname="Heraldic Sun.svg">
  <defs
     id="defs1899" />
  <sodipodi:namedview
     id="base"
     pagecolor="#ffffff"
     bordercolor="#666666"
     borderopacity="1.0"
     inkscape:pageopacity="0.0"
     inkscape:pageshadow="2"
     inkscape:zoom="2"
     inkscape:cx="90.29487"
     inkscape:cy="92.637834"
     inkscape:document-units="px"
     inkscape:current-layer="g2129"
     width="185px"
     height="185px"
     inkscape:window-width="1024"
     inkscape:window-height="719"
     inkscape:window-x="-5"
     inkscape:window-y="2"
     showgrid="false"
     inkscape:window-maximized="0" />
  <metadata
     id="metadata1902">
    <rdf:RDF>
      <cc:Work
         rdf:about="">
        <dc:format>image/svg+xml</dc:format>
        <dc:type
           rdf:resource="http://purl.org/dc/dcmitype/StillImage" />
        <dc:title></dc:title>
      </cc:Work>
    </rdf:RDF>
  </metadata>
  <g
     inkscape:label="Calque 1"
     inkscape:groupmode="layer"
     id="layer1">
    <g
       style="display:inline;opacity:1"
       id="g2129"
       transform="matrix(0.754398,0,0,0.754398,-22.570176,-20.020139)">
      <path
         id="path2140"
         d="m 112.12242,41.717871 c -3.13167,12.247644 0.32025,22.330054 6.30567,31.830311 4.62836,7.346301 7.66938,15.175155 7.5247,23.586633 -2.10538,1.187203 -4.11302,2.466872 -6.05099,3.843955 L 71.530397,68.849966 104.0045,116.68772 c -0.58345,0.80558 -1.15191,1.64288 -1.69922,2.47134 -9.210772,-4.14927 -17.857188,-4.97202 -26.09642,-3.37822 -11.647331,2.25306 -21.535825,-0.18629 -31.861573,-6.34045 6.445975,10.87482 16.062912,15.56077 27.012919,18.04616 8.484302,1.92573 16.153278,5.30494 22.005784,11.37825 -0.636811,2.2885 -1.162729,4.60319 -1.562631,6.95291 l -56.93647,11.5458 56.808107,10.86373 c 0.156142,0.97736 0.344286,1.95184 0.543854,2.92755 -9.449622,3.57528 -16.168066,9.09364 -20.86815,16.04826 -6.642761,9.82905 -15.313161,15.09888 -26.966199,18.04864 12.247637,3.13169 22.313159,-0.36102 31.813414,-6.34644 7.346316,-4.62835 15.175164,-7.66939 23.586624,-7.52471 1.187201,2.10538 2.466871,4.11303 3.843951,6.05099 l -32.111903,48.41219 47.861643,-32.53178 c 0.79936,0.57855 1.60869,1.17315 2.43056,1.7161 -4.14926,9.21079 -4.95514,17.89797 -3.36133,26.13721 2.25304,11.64735 -0.20315,21.49513 -6.35734,31.82081 10.87485,-6.44589 15.56081,-16.06286 18.04616,-27.01293 1.92573,-8.48432 5.30495,-16.15329 11.37825,-22.00579 2.29312,0.63863 4.5983,1.16188 6.9529,1.56262 l 11.54582,56.9365 10.86372,-56.80813 c 0.97737,-0.15612 1.95185,-0.34426 2.92757,-0.54384 3.57324,9.45244 9.09524,16.16915 16.04824,20.86817 9.82905,6.64274 15.0989,15.31318 18.04865,26.96617 3.1317,-12.24759 -0.36101,-22.31314 -6.34643,-31.81338 -4.63737,-7.36067 -7.64441,-15.16576 -7.48394,-23.60356 2.0916,-1.18118 4.08402,-2.45834 6.01021,-3.82706 l 48.41217,32.11193 -32.491,-47.87854 c 0.57089,-0.78967 1.13919,-1.60209 1.67536,-2.41368 9.21339,4.16125 17.89374,4.95594 26.13719,3.36134 11.6473,-2.25315 21.49509,0.20323 31.82079,6.35734 -6.44596,-10.87484 -16.046,-15.52001 -26.99604,-18.00539 -8.47476,-1.92354 -16.13501,-5.36782 -21.98187,-11.43592 0.63525,-2.28458 1.12264,-4.59045 1.52183,-6.93601 l 56.95338,-11.50503 -56.82502,-10.90451 c -0.15612,-0.97735 -0.34427,-1.95184 -0.54385,-2.92757 9.4583,-3.57197 16.16741,-9.09268 20.86816,-16.04822 6.64274,-9.82905 15.33007,-15.05813 26.98308,-18.00787 -12.24764,-3.13169 -22.33005,0.32023 -31.83029,6.30564 -7.36058,4.63736 -15.1657,7.64442 -23.60351,7.48394 -1.18121,-2.09159 -2.45838,-4.08402 -3.82708,-6.01019 L 248.48338,68.880668 200.58796,101.3309 c -0.78968,-0.57089 -1.60208,-1.13918 -2.41367,-1.675348 4.15566,-9.208113 4.97201,-17.857202 3.3782,-26.096425 -2.25309,-11.647344 0.18633,-21.535848 6.34047,-31.861572 -10.87483,6.445964 -15.52002,16.046007 -18.00539,26.996024 -1.92788,8.493823 -5.36604,16.187722 -11.45979,22.039564 -2.27759,-0.632536 -4.57401,-1.181575 -6.91213,-1.579512 L 160.01059,32.200266 149.10608,89.025267 c -0.97734,0.156129 -1.95183,0.344272 -2.92755,0.543857 -3.57464,-9.452127 -9.09258,-16.167326 -16.04825,-20.868159 -9.82904,-6.642762 -15.05811,-15.330042 -18.00786,-26.983094 z"
         style="color:#000000;display:inline;overflow:visible;visibility:visible;opacity:1;fill:#fcef3c;fill-opacity:1;fill-rule:nonzero;stroke:#000000;stroke-width:4.24179125;stroke-linecap:butt;stroke-linejoin:miter;stroke-miterlimit:4;stroke-dasharray:none;stroke-dashoffset:0;stroke-opacity:1;marker:none;marker-start:none;marker-mid:none;marker-end:none"
         inkscape:connector-curvature="0" />
    </g>
  </g>
</svg>
